<?xml version="1.0" standalone="no"?>
<!DOCTYPE svg PUBLIC "-//W3C//DTD SVG 1.1//EN" "http://www.w3.org/Graphics/SVG/1.1/DTD/svg11.dtd" >
<svg>
<metadata>
Created by FontForge 20090914 at Tue Sep 12 10:06:58 2017
 By www-data
(URW)++,Copyright 2003 by (URW)++ Design &#38; Development
</metadata>
<defs>
<font id="NeuzeitGroTOT-Bol" horiz-adv-x="1024" >
  <font-face 
    font-family="NeuzeitGroTOT"
    font-weight="700"
    font-stretch="normal"
    units-per-em="2048"
    panose-1="4 0 8 0 0 0 0 0 0 0"
    ascent="1638"
    descent="-410"
    x-height="948"
    cap-height="1366"
    bbox="-109 -469 1958 1821"
    underline-thickness="169"
    underline-position="-39"
    unicode-range="U+000D-U+FB02"
  />
<missing-glyph horiz-adv-x="748" 
d="M68 0v1365h544v-1365h-544zM136 68h408v1229h-408v-1229z" />
    <glyph glyph-name="uniFB01" unicode="fi" horiz-adv-x="1091" 
d="M43 729v219h104v53c0 128 30.667 221 92 279s159 86.667 293 86v-240c-46 -6 -78.167 -18.333 -96.5 -37s-27.5 -48 -27.5 -88v-53h124v-219h-124v-729h-261v729h-104zM688 1221c0 41.333 13.833 75.499 41.5 102.499s62.5 40.5 104.5 40.5s76.333 -13.667 103 -41
s40 -62.666 40 -105.999c0 -40 -14 -73.667 -42 -101s-62.667 -41 -104 -41s-75.5 13.833 -102.5 41.5s-40.5 62.5 -40.5 104.5zM702 -0.000976562v948h261v-948h-261z" />
    <glyph glyph-name="uniFB02" unicode="fl" horiz-adv-x="1091" 
d="M43 729v219h104v53c0 128 30.667 221 92 279s159 86.667 293 86v-240c-46 -6 -78.167 -18.333 -96.5 -37s-27.5 -48 -27.5 -88v-53h124v-219h-124v-729h-261v729h-104zM702 0v1366h261v-1366h-261z" />
    <glyph glyph-name=".notdef" horiz-adv-x="748" 
d="M68 0v1365h544v-1365h-544zM136 68h408v1229h-408v-1229z" />
    <glyph glyph-name="glyph1" horiz-adv-x="2048" 
 />
    <glyph glyph-name="glyph1" horiz-adv-x="2048" 
 />
    <glyph glyph-name="uni000D" unicode="&#xd;" horiz-adv-x="2048" 
 />
    <glyph glyph-name="space" unicode=" " horiz-adv-x="614" 
 />
    <glyph glyph-name="exclam" unicode="!" horiz-adv-x="587" 
d="M143 125c0 44 14.5 80.168 43.5 108.501s65.833 42.5 110.5 42.5c42.667 0 78.167 -14.5 106.5 -43.5s42.5 -65.5 42.5 -109.5c0 -42.667 -14.333 -78.334 -43 -107.001s-64.667 -43 -108 -43c-44 0 -80.333 14.333 -109 43s-43 65 -43 109zM166 426.001v940h256v-940
h-256z" />
    <glyph glyph-name="quotedbl" unicode="&#x22;" horiz-adv-x="843" 
d="M66 1366h305l-52 -549h-202zM473 1366h305l-51 -549h-203z" />
    <glyph glyph-name="numbersign" unicode="#" 
d="M61 465v137h218l28 180h-194v140h213l57 383h135l-53 -383h180l55 383h140l-56 -383h179v-140h-199l-25 -180h176v-137h-196l-60 -410h-141l60 410h-181l-59 -410h-139l59 410h-197zM418 600h180l29 184h-185z" />
    <glyph glyph-name="dollar" unicode="$" 
d="M78 973c0 107.333 34.667 196.336 104 267.003s160.333 110 273 118v145h96v-145c118.667 -17.333 209.5 -56.333 272.5 -117s96.5 -141.334 100.5 -242.001h-232c-1.33301 38 -14.166 69.5 -38.499 94.5s-58.5 40.833 -102.5 47.5v-348c96 -33.333 171.667 -67 227 -101
c52.667 -31.333 93.834 -73.333 123.501 -126s44.5 -110.334 44.5 -173.001c0 -69.333 -17.833 -134.833 -53.5 -196.5s-83.167 -108.834 -142.5 -141.501c-26.667 -15.333 -54.334 -26.833 -83.001 -34.5s-67.334 -14.5 -116.001 -20.5v-180h-96v180
c-110 6 -200.5 45 -271.5 117s-105.5 160 -103.5 264h233c-2 -43.333 9.5 -79.666 34.5 -108.999s60.833 -48.333 107.5 -57v358c-137.333 47.333 -234.5 101.166 -291.5 161.499s-85.5 139.833 -85.5 238.5zM311 987.003c0 -49.333 19.332 -89 57.999 -119
c18 -12.667 46.667 -27 86 -43v316c-45.333 -7.33301 -80.666 -24.333 -105.999 -51s-38 -61 -38 -103zM550.999 215.003c46.667 6 83.167 23.502 109.5 52.502s39.5 66.167 39.5 111.5c0 39.333 -11.333 71.166 -34 95.499s-61 45.166 -115 62.499v-322z" />
    <glyph glyph-name="percent" unicode="%" horiz-adv-x="1390" 
d="M82 934v176.001c0 96.667 19 165 57 205c45.333 47.333 109.666 71 192.999 71c72 0 132.667 -20.333 182 -61c26.667 -24.667 45.334 -52 56.001 -82s16 -71 16 -123v-217c0 -82.667 -21.333 -146 -64 -190s-104.667 -66 -186 -66c-84.667 0 -149.667 22.667 -195 68
c-22 21.333 -37.333 48.166 -46 80.499s-13 78.5 -13 138.5zM203 29.001l901 1362l82 -52l-901 -1364zM244 924.001c0 -32 0.666992 -53.5 2 -64.5s4.66602 -21.167 9.99902 -30.5c14 -25.333 40.667 -38 80 -38c34.667 0 58.667 9.83301 72 29.5s20 55.5 20 107.5v186
c0 46.667 -6.66699 79.5 -20 98.5s-36.666 28.5 -69.999 28.5c-36.667 0 -61.5 -9 -74.5 -27s-19.5 -52.667 -19.5 -104v-186zM803 264.001l-0.000976562 176c0 96.667 19 165 57 205c46 48 110.333 72 193 72c71.333 0 132 -20.667 182 -62
c26.667 -24.667 45.334 -52 56.001 -82s16 -70.667 16 -122v-218c0 -82 -21.333 -144.667 -64 -188s-104.667 -65 -186 -65c-85.333 0 -150.333 22.333 -195 67c-21.333 21.333 -36.5 48.333 -45.5 81s-13.5 78 -13.5 136zM964.999 254.001
c0 -46.667 3.99805 -77.332 11.998 -91.999c14.667 -26 41.334 -39 80.001 -39c34.667 0 58.667 9.66699 72 29s20 54.666 20 105.999v186c0 46.667 -6.66699 79.5 -20 98.5s-36.666 28.5 -69.999 28.5c-36.667 0 -61.5 -9 -74.5 -27s-19.5 -52.667 -19.5 -104v-186z" />
    <glyph glyph-name="ampersand" unicode="&#x26;" horiz-adv-x="1306" 
d="M76 358c0 86 21.1689 158.832 63.502 218.499s120.166 126.167 233.499 199.5c-43.333 61.333 -73 112 -89 152s-24 82.333 -24 127c0 84 32.167 153.5 96.5 208.5s146.166 82.5 245.499 82.5c96.667 0 176.5 -27.333 239.5 -82s94.5 -123.667 94.5 -207
c0 -74.667 -26.667 -145 -80 -211c-18.667 -21.333 -38.167 -40.666 -58.5 -57.999s-49.166 -38.333 -86.499 -63l188 -252c53.333 48 90.166 82.167 110.499 102.5s50.5 53.833 90.5 100.5l174 -154l-40 -44.5l-34.5 -37l-27 -28.5
c-6.33301 -6.66699 -15.833 -16.167 -28.5 -28.5l-26.5 -25.5l-34.5 -32.5l-39 -36.5l230 -289h-301l-105 133c-73.333 -59.333 -141 -102.5 -203 -129.5s-124.667 -40.5 -188 -40.5c-116 0 -211.833 37.333 -287.5 112s-113.5 169 -113.5 283zM334.002 374.999
c0 -47.333 17.332 -88.5 51.999 -123.5s75.334 -52.5 122.001 -52.5c72 0 141.667 39.333 209 118l-213 275c-62.667 -40 -106.667 -76.167 -132 -108.5s-38 -68.5 -38 -108.5zM506.001 1051c0 -23.333 5 -45.3301 15 -65.9971s29 -49.334 57 -86.001
c44 27.333 75 52.666 93 75.999s27 49.333 27 78c0 26.667 -8.66699 49 -26 67s-39.333 27 -66 27c-27.333 0 -50.833 -9.33301 -70.5 -28s-29.5 -41.334 -29.5 -68.001z" />
    <glyph glyph-name="quotesingle" unicode="'" horiz-adv-x="446" 
d="M66 1366h315l-53 -549h-211z" />
    <glyph glyph-name="parenleft" unicode="(" horiz-adv-x="669" 
d="M76 473c0 211.333 47 422.331 141 632.998c30 68 59.833 124.833 89.5 170.5s69.5 96.834 119.5 153.501l166 -156c-188.667 -249.333 -283 -519.666 -283 -810.999c0 -277.333 94.333 -537.333 283 -780l-178 -152c-114.667 152.667 -199.667 306 -255 460
s-83 314.667 -83 482z" />
    <glyph glyph-name="parenright" unicode=")" horiz-adv-x="669" 
d="M78 -313c188 246.667 282 517 282 811c0 278.667 -94 539.334 -282 782.001l178 150c225.333 -298 338 -612.333 338 -943c0 -210 -47 -420.667 -141 -632c-30 -68 -59.833 -124.833 -89.5 -170.5s-69.5 -96.834 -119.5 -153.501z" />
    <glyph glyph-name="asterisk" unicode="*" horiz-adv-x="847" 
d="M113 1087l51 138l184 -56v197h146v-197l192 70l51 -137l-207 -76l138 -162l-113 -88l-133 164l-115 -164l-125 88l117 162z" />
    <glyph glyph-name="plus" unicode="+" 
d="M27 659v136h415v405h140v-405h417v-136h-417v-405h-140v405h-415z" />
    <glyph glyph-name="comma" unicode="," horiz-adv-x="534" 
d="M66 -229l118 508l240 -60l-182 -489z" />
    <glyph glyph-name="hyphen" unicode="-" horiz-adv-x="454" 
d="M0 385v229h455v-229h-455z" />
    <glyph glyph-name="period" unicode="." horiz-adv-x="534" 
d="M117 125c0 44 14.333 80.168 43 108.501s65.334 42.5 110.001 42.5c43.333 0 79.166 -14.5 107.499 -43.5s42.5 -65.5 42.5 -109.5c0 -42.667 -14.5 -78.334 -43.5 -107.001s-65.167 -43 -108.5 -43c-44 0 -80.167 14.333 -108.5 43s-42.5 65 -42.5 109z" />
    <glyph glyph-name="slash" unicode="/" horiz-adv-x="804" 
d="M-109 -424l680 1790h181l-680 -1790h-181z" />
    <glyph glyph-name="zero" unicode="0" 
d="M84 475l0.000976562 435.998c0 88 7.16699 159 21.5 213s37.833 99.333 70.5 136c76 84 186 126 330 126c127.333 0 230.333 -35.333 309 -106c44 -39.333 75.5 -84.666 94.5 -135.999s28.5 -118 28.5 -200v-530c0 -78.667 -8.83301 -144.167 -26.5 -196.5
s-46.5 -97.5 -86.5 -135.5c-76.667 -72.667 -180.334 -109 -311.001 -109c-142 0 -251.333 38.333 -328 115c-38 38 -64.5 85.333 -79.5 142s-22.5 138.334 -22.5 245.001zM348.001 445.998c0 -54.667 1.66699 -91.667 5 -111s11.333 -37.333 24 -54
c13.333 -20 32.5 -36 57.5 -48s51.5 -18 79.5 -18c28.667 0 55.334 6.33301 80.001 19s43.667 29.667 57 51c19.333 34 29 88.667 29 164v475c0 45.333 -3 80 -9 104s-16.667 44.667 -32 62c-30 34 -71.667 51 -125 51c-64.667 0 -110.334 -22.667 -137.001 -68
c-19.333 -34 -29 -88 -29 -162v-465z" />
    <glyph glyph-name="one" unicode="1" 
d="M233 885v243l512 267v-1395h-264v1018z" />
    <glyph glyph-name="two" unicode="2" 
d="M57 0l477.998 728.998c52 80.667 85.667 137.334 101 170.001s23 65.334 23 98.001c0 44 -15.167 80.333 -45.5 109s-68.833 43 -115.5 43c-36.667 0 -68.667 -8.5 -96 -25.5s-46.666 -40.5 -57.999 -70.5c-12 -29.333 -18.667 -73 -20 -131h-242
c-0.666992 144.667 37.333 258.167 114 340.5s182.667 123.5 318 123.5c120 0 218.333 -34 295 -102s115 -155.333 115 -262c0 -62 -12.667 -124.667 -38 -188s-68.666 -139.333 -129.999 -228l-256 -375h387v-231h-830z" />
    <glyph glyph-name="three" unicode="3" 
d="M51 371l236.001 8c8 -52.667 28.833 -94.167 62.5 -124.5s75.5 -45.5 125.5 -45.5c58.667 0 108.167 20 148.5 60s60.5 89.667 60.5 149c0 60.667 -19.833 110.667 -59.5 150s-90.167 59 -151.5 59c-46.667 0 -88.334 -11.667 -125.001 -35l-147 125l311 416h-393v225
h831l-379 -510c110.667 -8.66699 199.167 -50.667 265.5 -126s99.5 -170.666 99.5 -285.999c0 -133.333 -43.167 -243.833 -129.5 -331.5s-194.833 -131.5 -325.5 -131.5c-76 0 -145.5 15.833 -208.5 47.5s-113.5 76.167 -151.5 133.5c-20.667 30.667 -36 61.667 -46 93
s-18 72.666 -24 123.999z" />
    <glyph glyph-name="four" unicode="4" 
d="M72 281v219l479 870h274v-864h125v-225h-125v-281h-252v281h-501zM287 506h286v508z" />
    <glyph glyph-name="five" unicode="5" 
d="M72 285l228.999 86c38 -100 101.667 -150 191 -150c56.667 0 103.834 20 141.501 60s56.5 89.667 56.5 149s-19.333 109.333 -58 150s-86.334 61 -143.001 61c-36 0 -67.667 -7.16699 -95 -21.5s-53.666 -37.833 -78.999 -70.5h-172v809h697v-238h-457v-293
c57.333 24.667 114 37 170 37c112.667 0 206.667 -40.833 282 -122.5s113 -183.5 113 -305.5c0 -134.667 -42.167 -245.5 -126.5 -332.5s-191.5 -130.5 -321.5 -130.5c-126.667 0 -232 41 -316 123c-24 25.333 -43.667 51 -59 77s-33 63.333 -53 112z" />
    <glyph glyph-name="six" unicode="6" 
d="M68 412c0 62 11.5 124.168 34.5 186.501s61.167 136.5 114.5 222.5l340 537h299l-350 -539c26.667 8 50.667 12 72 12c104.667 0 193.834 -39.333 267.501 -118s110.5 -174.334 110.5 -287.001c0 -82 -20.167 -157.833 -60.5 -227.5s-95.333 -124.667 -165 -165
s-145.834 -60.5 -228.501 -60.5c-123.333 0 -226.5 42 -309.5 126s-124.5 188.333 -124.5 313zM315 416.001c0 -56.667 18.6689 -103.669 56.002 -141.002s83.666 -56 138.999 -56s102.333 19.167 141 57.5s58 84.833 58 139.5c0 56.667 -18.5 103.834 -55.5 141.501
s-82.833 56.5 -137.5 56.5c-56.667 0 -104.334 -19.167 -143.001 -57.5s-58 -85.166 -58 -140.499z" />
    <glyph glyph-name="seven" unicode="7" 
d="M141 0l443 1120h-441v238h807l-536 -1358h-273z" />
    <glyph glyph-name="eight" unicode="8" 
d="M70 381c0 166 67.3311 277.333 201.998 334c-52 25.333 -91.833 62.333 -119.5 111s-41.5 105.667 -41.5 171c0 113.333 38.167 206.5 114.5 279.5s174.5 109.5 294.5 109.5c116.667 0 212.834 -35.667 288.501 -107s113.5 -162.333 113.5 -273
c0 -74 -19.333 -140.333 -58 -199c-15.333 -22.667 -30 -40 -44 -52s-34.667 -25.333 -62 -40c130.667 -56.667 196 -163.334 196 -320.001c0 -123.333 -41.833 -224.5 -125.5 -303.5s-190.5 -118.5 -320.5 -118.5c-129.333 0 -234.666 37.833 -315.999 113.5
s-122 173.834 -122 294.501zM321.998 399c0 -53.333 18.168 -98 54.501 -134s81.5 -54 135.5 -54c52 0 96.333 18.333 133 55s55 81 55 133s-18.5 96.833 -55.5 134.5s-80.5 56.5 -130.5 56.5c-54.667 0 -100.334 -18.167 -137.001 -54.5s-55 -81.833 -55 -136.5z
M347.999 997c0 -48 16.5 -88.668 49.5 -122.001s72.5 -50 118.5 -50s86.5 17 121.5 51s52.5 73 52.5 117c0 44.667 -17.167 83.834 -51.5 117.501s-74.5 50.5 -120.5 50.5c-48.667 0 -89.167 -15.5 -121.5 -46.5s-48.5 -70.167 -48.5 -117.5z" />
    <glyph glyph-name="nine" unicode="9" 
d="M68 936c0 127.333 43.332 234.168 129.999 320.501s194 129.5 322 129.5c126 0 230.5 -41.833 313.5 -125.5s124.5 -189.167 124.5 -316.5c0 -62 -11.5 -124.833 -34.5 -188.5s-60.5 -137.167 -112.5 -220.5l-336 -535h-295l344 537c-29.333 -6 -49.666 -9 -60.999 -9
c-111.333 0 -205 39.167 -281 117.5s-114 175.166 -114 290.499zM318.999 948.002c0 -55.333 18.499 -101.832 55.499 -139.499s82.833 -56.5 137.5 -56.5c56.667 0 104 18.5 142 55.5s57 83.167 57 138.5c0 54 -18.833 100.333 -56.5 139s-82.5 58 -134.5 58
c-55.333 0 -102.666 -18.833 -141.999 -56.5s-59 -83.834 -59 -138.501z" />
    <glyph glyph-name="colon" unicode=":" horiz-adv-x="534" 
d="M117 125c0 44 14.333 80.168 43 108.501s65.334 42.5 110.001 42.5c43.333 0 79.166 -14.5 107.499 -43.5s42.5 -65.5 42.5 -109.5c0 -42.667 -14.5 -78.334 -43.5 -107.001s-65.167 -43 -108.5 -43c-44 0 -80.167 14.333 -108.5 43s-42.5 65 -42.5 109zM117 801.001
c0 44 14.333 80.168 43 108.501s65.334 42.5 110.001 42.5c43.333 0 79.166 -14.5 107.499 -43.5s42.5 -65.5 42.5 -109.5c0 -42.667 -14.5 -78.334 -43.5 -107.001s-65.167 -43 -108.5 -43c-44 0 -80.167 14.333 -108.5 43s-42.5 65 -42.5 109z" />
    <glyph glyph-name="semicolon" unicode=";" horiz-adv-x="534" 
d="M66 -229l118 508l240 -60l-182 -489zM141 768c0 44 14.5 80.334 43.5 109.001s65.833 43 110.5 43c43.333 0 79 -14.5 107 -43.5s42 -65.833 42 -110.5c0 -42.667 -14.333 -78.334 -43 -107.001s-64.667 -43 -108 -43c-44 0 -80.333 14.333 -109 43s-43 65 -43 109z" />
    <glyph glyph-name="less" unicode="&#x3c;" 
d="M68 571v238l886 459v-283l-587 -297l585 -297l2 -278z" />
    <glyph glyph-name="equal" unicode="=" 
d="M25 510v131h972v-131h-972zM25 813v131h972v-131h-972z" />
    <glyph glyph-name="greater" unicode="&#x3e;" 
d="M70 113v280l587 297l-585 297l-2 281l886 -459v-238z" />
    <glyph glyph-name="question" unicode="?" horiz-adv-x="915" 
d="M51 997c2 124 37.333 220.666 106 289.999s163 104 283 104c116.667 0 212.167 -34.667 286.5 -104s111.5 -157.666 111.5 -264.999c0 -66.667 -14.333 -125.167 -43 -175.5s-75.334 -99.166 -140.001 -146.499c-52 -39.333 -84.333 -68.833 -97 -88.5
s-19 -51.5 -19 -95.5v-24c1.33301 -5.33301 2 -21.333 2 -48h-262c-2 33.333 -3 58 -3 74c0 57.333 4.66699 102.166 14 134.499s26.333 62.833 51 91.5s65.334 64.667 122.001 108c42 32.667 70.833 61 86.5 85s23.5 51 23.5 81c0 40 -13 72.833 -39 98.5
s-59.333 38.5 -100 38.5c-44 0 -78.167 -13.833 -102.5 -41.5s-36.5 -66.5 -36.5 -116.5h-244zM260 124.999c0 44 14.5 80.168 43.5 108.501s65.833 42.5 110.5 42.5c42.667 0 78.167 -14.5 106.5 -43.5s42.5 -65.5 42.5 -109.5c0 -42.667 -14.333 -78.334 -43 -107.001
s-64.667 -43 -108 -43c-44 0 -80.333 14.333 -109 43s-43 65 -43 109z" />
    <glyph glyph-name="at" unicode="@" horiz-adv-x="1579" 
d="M127 678c0 112 27.501 219.333 82.501 322s130.5 187.667 226.5 255c116.667 80.667 250.667 121 402 121c110 0 212.5 -25.667 307.5 -77s170.5 -120.833 226.5 -208.5s84 -182.167 84 -283.5c0 -81.333 -17 -158.666 -51 -231.999s-81.667 -135.333 -143 -186
c-42.667 -36 -90.167 -64.5 -142.5 -85.5s-100.5 -31.5 -144.5 -31.5c-40.667 0 -72.834 9.33301 -96.501 28s-37.167 45.667 -40.5 81c-50.667 -41.333 -92.667 -69.833 -126 -85.5s-69.333 -23.5 -108 -23.5c-65.333 0 -118.5 23.333 -159.5 70s-61.5 108 -61.5 184
c0 60.667 10.667 123.5 32 188.5s51 125.167 89 180.5c42 62.667 91.5 111.167 148.5 145.5s116.5 51.5 178.5 51.5c38 0 69.833 -6.16699 95.5 -18.5s54.167 -35.5 85.5 -69.5l20 53h176l-213 -568c-16 -44.667 -24 -77.334 -24 -98.001c0 -26 17 -39 51 -39
c38 0 77.667 14.333 119 43c64 41.333 115.5 98.666 154.5 171.999s58.5 150 58.5 230c0 86 -23.667 166 -71 240s-111.333 132.667 -192 176s-168 65 -262 65c-81.333 0 -159 -16 -233 -48s-137.833 -75.167 -191.5 -129.5s-96.334 -118.833 -128.001 -193.5
s-47.5 -153 -47.5 -235c0 -105.333 26.333 -203.166 79 -293.499s123.667 -161.666 213 -213.999s186 -78.5 290 -78.5c72.667 0 143.5 12.333 212.5 37s129.833 60 182.5 106c36.667 30 81 80.667 133 152h101c-36.667 -73.333 -73.167 -131.333 -109.5 -174
s-81.833 -80.334 -136.5 -113.001c-116 -70.667 -245.667 -106 -389 -106c-91.333 0 -178.666 18.333 -261.999 55s-155.5 86 -216.5 148s-109.5 135.5 -145.5 220.5s-54 173.833 -54 266.5zM547.001 451c0 -29.333 7.33203 -52.499 21.999 -69.499
s35.334 -25.5 62.001 -25.5c36.667 0 75.834 22.167 117.501 66.5s75.5 98.833 101.5 163.5l102 262c6 14 9 31 9 51c0 33.333 -8 59.5 -24 78.5s-37.667 28.5 -65 28.5c-36.667 0 -75.334 -21.333 -116.001 -64c-55.333 -59.333 -104 -138.333 -146 -237
s-63 -183.334 -63 -254.001z" />
    <glyph glyph-name="A" unicode="A" horiz-adv-x="1294" 
d="M4 0l471 1366h350l467 -1366h-307l-78 236h-524l-82 -236h-297zM455 465h379l-189 565z" />
    <glyph glyph-name="B" unicode="B" horiz-adv-x="1171" 
d="M143 0v1366h441c169.333 0 288.666 -29.333 357.999 -88c38.667 -31.333 68.5 -71.166 89.5 -119.499s31.5 -101.5 31.5 -159.5c0 -96 -28.667 -173.667 -86 -233c-20 -20 -39.667 -35.5 -59 -46.5s-47.333 -22.833 -84 -35.5
c40.667 -8.66699 72.334 -18.334 95.001 -29.001s44.667 -25.667 66 -45c66 -60 99 -141.667 99 -245c0 -63.333 -12.667 -121.666 -38 -174.999s-60 -94.666 -104 -123.999c-36 -24 -77.167 -41 -123.5 -51s-106.833 -15 -181.5 -15h-504zM424 206.998
l137.001 -0.000976562c88.667 0 152.5 14.167 191.5 42.5s58.5 74.833 58.5 139.5c0 72.667 -26 124.667 -78 156c-21.333 12.667 -45.333 21.334 -72 26.001s-65.334 7 -116.001 7h-121v-371zM424.001 785.997h113c82.667 0 143.834 15.333 183.501 46
s59.5 77.667 59.5 141c0 34.667 -7.5 65.667 -22.5 93s-34.833 47.333 -59.5 60c-38.667 18 -97.334 27 -176.001 27h-98v-367z" />
    <glyph glyph-name="C" unicode="C" horiz-adv-x="1300" 
d="M76 680c0 136.667 28.833 259.329 86.5 367.996s138.167 193.334 241.5 254.001s220 91 350 91c105.333 0 197.333 -16.667 276 -50s158.667 -89 240 -167l-183 -185c-56 50.667 -109 87.334 -159 110.001s-104 34 -162 34c-118.667 0 -216 -41.667 -292 -125
s-114 -190.666 -114 -321.999c0 -132 39.667 -240.833 119 -326.5s180.333 -128.5 303 -128.5c120 0 221.667 46.667 305 140l170 -193c-79.333 -73.333 -158.333 -126.166 -237 -158.499s-168.667 -48.5 -270 -48.5c-212.667 0 -381.334 74.667 -506.001 224
c-53.333 63.333 -94.666 137.5 -123.999 222.5s-44 171.833 -44 260.5z" />
    <glyph glyph-name="D" unicode="D" horiz-adv-x="1312" 
d="M143 0l0.000976562 1366h387c110.667 0 205.167 -12.167 283.5 -36.5s147.833 -62.833 208.5 -115.5c70 -62 123.333 -137 160 -225s55 -185 55 -291c0 -109.333 -19 -211 -57 -305s-91.333 -172.333 -160 -235c-116.667 -105.333 -274.334 -158 -473.001 -158h-404z
M424.001 231h53.001c75.333 0 137.833 7.33301 187.5 22s94.5 39 134.5 73c49.333 42 87.166 94.333 113.499 157s39.5 131.667 39.5 207c0 136 -38.5 244.833 -115.5 326.5s-180.5 122.5 -310.5 122.5h-102v-908z" />
    <glyph glyph-name="E" unicode="E" horiz-adv-x="948" 
d="M96 0v1366h760v-229h-479v-336h479v-230h-479v-342h479v-229h-760z" />
    <glyph glyph-name="F" unicode="F" horiz-adv-x="956" 
d="M143 0v1366h760v-229h-479v-336h479v-230h-479v-571h-281z" />
    <glyph glyph-name="G" unicode="G" horiz-adv-x="1540" 
d="M76 680c0 134 30.3311 255.501 90.998 364.501s144.334 194.333 251.001 256s226 92.5 358 92.5c110.667 0 213.834 -22.833 309.501 -68.5s176.834 -110.5 243.501 -194.5l-211 -165c-50 59.333 -101.333 102.166 -154 128.499s-113.334 39.5 -182.001 39.5
c-120 0 -220.333 -43.5 -301 -130.5s-121 -195.167 -121 -324.5c0 -126 41.333 -232.667 124 -320s184 -131 304 -131c58 0 114.5 12.5 169.5 37.5s100.5 58.5 136.5 100.5c35.333 40 63.333 97.333 84 172h-381v229h684v-74c0 -104 -16.167 -197.167 -48.5 -279.5
s-82.5 -158.5 -150.5 -228.5c-140.667 -140.667 -308.667 -211 -504 -211c-98.667 0 -191.5 18.167 -278.5 54.5s-161.5 85.833 -223.5 148.5s-110.833 137.667 -146.5 225s-53.5 180.333 -53.5 279z" />
    <glyph glyph-name="H" unicode="H" horiz-adv-x="1366" 
d="M143 0v1366h281v-578h518v578h281v-1366h-281v559h-518v-559h-281z" />
    <glyph glyph-name="I" unicode="I" horiz-adv-x="565" 
d="M143 0v1366h281v-1366h-281z" />
    <glyph glyph-name="J" unicode="J" horiz-adv-x="786" 
d="M63 -20l-0.00292969 247c20.667 -1.33301 40 -2 58 -2c86.667 0 151.334 19.333 194.001 58c26.667 23.333 45 54.333 55 93s15 97.667 15 177v584h-322v229h603v-881c0 -126 -19.167 -224.5 -57.5 -295.5s-101.166 -125.167 -188.499 -162.5
c-40 -17.333 -86.667 -29.5 -140 -36.5s-125.666 -10.5 -216.999 -10.5z" />
    <glyph glyph-name="K" unicode="K" horiz-adv-x="1153" 
d="M143 0v1366h281v-594l387 594h326l-443 -657l443 -709h-330l-383 608v-608h-281z" />
    <glyph glyph-name="L" unicode="L" horiz-adv-x="923" 
d="M143 0v1366h281v-1135h457v-231h-738z" />
    <glyph glyph-name="M" unicode="M" horiz-adv-x="1736" 
d="M143 0v1366h318l407 -829l410 829h317v-1366h-280v852l-447 -893l-444 893v-852h-281z" />
    <glyph glyph-name="N" unicode="N" horiz-adv-x="1413" 
d="M143 0v1366h277l571 -852v852h281v-1366h-275l-573 864v-864h-281z" />
    <glyph glyph-name="O" unicode="O" horiz-adv-x="1564" 
d="M76 676c0 133.333 31.3301 254.832 93.9971 364.499s148.834 195.834 258.501 258.501s231.167 94 364.5 94c105.333 0 204.333 -21.667 297 -65s172.334 -105 239.001 -185c105.333 -128 158 -283.667 158 -467c0 -127.333 -31.167 -245 -93.5 -353
s-147.166 -193.333 -254.499 -256s-224.333 -94 -351 -94c-98 0 -191 18.333 -279 55s-163.667 86.167 -227 148.5s-113.5 137 -150.5 224s-55.5 178.833 -55.5 275.5zM359.997 679.999c0 -127.333 40.332 -234 120.999 -320s181 -129 301 -129
c116.667 0 215.834 42.833 297.501 128.5s122.5 190.5 122.5 314.5c0 132 -39.667 241.5 -119 328.5s-179 130.5 -299 130.5c-122 0 -223.167 -43 -303.5 -129s-120.5 -194 -120.5 -324z" />
    <glyph glyph-name="P" unicode="P" horiz-adv-x="1128" 
d="M143 0v1366h437c162 0 286.667 -37.833 374 -113.5s131 -183.167 131 -322.5c0 -142.667 -43.5 -255.167 -130.5 -337.5s-205.833 -123.5 -356.5 -123.5h-174v-469h-281zM424 700h121c80.667 0 143.5 19 188.5 57s67.5 90.667 67.5 158s-22.5 120.833 -67.5 160.5
s-105.833 59.5 -182.5 59.5h-127v-435z" />
    <glyph glyph-name="Q" unicode="Q" horiz-adv-x="1566" 
d="M78 676c0 100 18.333 194.334 55 283.001s86.667 164.667 150 228s139 113.5 227 150.5s181.667 55.5 281 55.5c130.667 0 249.334 -30.5 356.001 -91.5s190.334 -144.833 251.001 -251.5s91 -225.334 91 -356.001c0 -177.333 -52.667 -332.333 -158 -465l129 -139
l-198 -168l-123 148c-110.667 -64.667 -230.334 -97 -359.001 -97c-95.333 0 -186.333 18.5 -273 55.5s-161.334 86.833 -224.001 149.5s-112.5 137.5 -149.5 224.5s-55.5 178.167 -55.5 273.5zM362 682.001c0 -126 39.833 -232.334 119.5 -319.001s177.167 -130 292.5 -130
c66.667 0 122.667 15.333 168 46l-92 108l197 168l98 -113c39.333 78.667 59 161.334 59 248.001c0 124.667 -40.5 229.667 -121.5 315s-180.5 128 -298.5 128c-120 0 -220.333 -43 -301 -129s-121 -193.333 -121 -322z" />
    <glyph glyph-name="R" unicode="R" horiz-adv-x="1196" 
d="M143 0v1366h422c169.333 0 298.333 -36.667 387 -110s133 -180 133 -320c0 -107.333 -27.5 -196.166 -82.5 -266.499s-135.167 -118.833 -240.5 -145.5l377 -524h-340l-375 543v-543h-281zM424 706.999l127 0.000976562c80 0 141.667 18.667 185 56s65 90.333 65 159
c0 65.333 -20.333 117.166 -61 155.499s-95.667 57.5 -165 57.5h-151v-428z" />
    <glyph glyph-name="S" unicode="S" horiz-adv-x="1067" 
d="M61 399h272.995v-18c0 -45.333 17.833 -83.333 53.5 -114s79.834 -46 132.501 -46c50.667 0 93.334 14 128.001 42s52 62.667 52 104c0 44 -18.333 80 -55 108c-16.667 12.667 -34.667 23.334 -54 32.001s-56.666 23.334 -111.999 44.001
c-149.333 52.667 -254.166 111 -314.499 175s-90.5 148.333 -90.5 253c0 123.333 41.5 223.166 124.5 299.499s191.5 114.5 325.5 114.5c132.667 0 239.834 -37.167 321.501 -111.5s128.167 -176.5 139.5 -306.5h-283c-5.33301 57.333 -22.5 100 -51.5 128
s-71.167 42 -126.5 42c-50 0 -90.5 -13.333 -121.5 -40s-46.5 -61.334 -46.5 -104.001c0 -54.667 28 -97.667 84 -129c30.667 -16.667 84 -39 160 -67c75.333 -27.333 134.333 -52.333 177 -75s78.667 -48.334 108 -77.001c72 -68 108 -156 108 -264
c0 -124 -43.167 -224.333 -129.5 -301s-200.166 -115 -341.499 -115c-142.667 0 -255.334 38.333 -338.001 115s-123.667 180.334 -123 311.001z" />
    <glyph glyph-name="T" unicode="T" horiz-adv-x="944" 
d="M6 1137v229h930v-229h-324v-1137h-280v1137h-326z" />
    <glyph glyph-name="U" unicode="U" horiz-adv-x="1308" 
d="M121 575v790.997h280v-801c0 -63.333 4.83301 -114.166 14.5 -152.499s25.5 -70.166 47.5 -95.499c20.667 -25.333 48 -45.666 82 -60.999s70 -23 108 -23c40 0 78 8.66699 114 26s64.333 40.333 85 69c20 26 33.833 56.5 41.5 91.5s11.5 84.167 11.5 147.5v799h283v-791
c0 -196.667 -45 -344 -135 -442c-46 -50.667 -103.5 -90 -172.5 -118s-143.5 -42 -223.5 -42c-82.667 0 -160.167 15 -232.5 45s-132.5 71.667 -180.5 125c-44 48.667 -75.5 106.5 -94.5 173.5s-28.5 153.167 -28.5 258.5z" />
    <glyph glyph-name="V" unicode="V" horiz-adv-x="1150" 
d="M4 1366h289l276 -915l289 915h289l-430 -1366h-299z" />
    <glyph glyph-name="W" unicode="W" horiz-adv-x="1755" 
d="M4 1366h297l219 -862l221 862h279l213 -877l227 877h293l-381 -1366h-282l-216 895l-215 -895h-282z" />
    <glyph glyph-name="X" unicode="X" horiz-adv-x="1189" 
d="M8 0l430 721l-383 645h324l219 -391l225 391h320l-385 -645l424 -721h-320l-264 475l-266 -475h-324z" />
    <glyph glyph-name="Y" unicode="Y" horiz-adv-x="1140" 
d="M-23 1366h334l264 -473l261 473h327l-448 -764v-602h-281v602z" />
    <glyph glyph-name="Z" unicode="Z" horiz-adv-x="1128" 
d="M27 0l639 1137h-568v229h1006l-637 -1137h575v-229h-1015z" />
    <glyph glyph-name="bracketleft" unicode="[" horiz-adv-x="669" 
d="M135 -424v1790h438v-154h-219v-1482h219v-154h-438z" />
    <glyph glyph-name="backslash" unicode="\" horiz-adv-x="804" 
d="M53 1366h180l680 -1790h-182z" />
    <glyph glyph-name="bracketright" unicode="]" horiz-adv-x="669" 
d="M96 -270h219v1482h-219v154h439v-1790h-439v154z" />
    <glyph glyph-name="asciicircum" unicode="^" 
d="M37 725l317 647h316l317 -647h-252l-223 457l-223 -457h-252z" />
    <glyph glyph-name="underscore" unicode="_" 
d="M0 -121h1024v-170h-1024v170z" />
    <glyph glyph-name="grave" unicode="`" 
d="M201 1376h262l170 -284h-160z" />
    <glyph glyph-name="a" unicode="a" horiz-adv-x="1243" 
d="M70 463c0 149.333 45.001 273 135.001 371s204 147 342 147c64 0 120 -12 168 -36s95 -63.333 141 -118v121h260v-948h-260v131c-45.333 -56.667 -94.333 -98.167 -147 -124.5s-113.667 -39.5 -183 -39.5c-132.667 0 -241.834 46.5 -327.501 139.5
s-128.5 211.833 -128.5 356.5zM346.001 469c0 -82.667 24.168 -151.833 72.501 -207.5s108.166 -83.5 179.499 -83.5c72 0 133.667 29 185 87s77 128 77 210c0 84 -24.333 152.833 -73 206.5s-111 80.5 -187 80.5c-74.667 0 -135.667 -27.333 -183 -82s-71 -125 -71 -211z
" />
    <glyph glyph-name="b" unicode="b" horiz-adv-x="1241" 
d="M129 0v1366h260v-532c45.333 52 91.833 89.5 139.5 112.5s103.5 34.5 167.5 34.5c139.333 0 253.833 -48 343.5 -144s134.5 -218.667 134.5 -368c0 -148.667 -43 -269.5 -129 -362.5s-198 -139.5 -336 -139.5c-71.333 0 -132 12.167 -182 36.5s-96 64.166 -138 119.499
v-123h-260zM385 467.001c0 -84.667 23.999 -154.333 71.999 -209s108.667 -82 182 -82c76 0 138 27 186 81s72 124 72 210c0 84 -24.167 154.167 -72.5 210.5s-108.166 84.5 -179.499 84.5c-72.667 0 -134.167 -28.667 -184.5 -86s-75.5 -127 -75.5 -209z" />
    <glyph glyph-name="c" unicode="c" horiz-adv-x="958" 
d="M68 469c0 149.333 47 272 141 368s214.667 144 362 144c136 0 262.333 -52.667 379 -158l-174 -157c-56 56 -121.333 84 -196 84c-71.333 0 -130.833 -26 -178.5 -78s-71.5 -117 -71.5 -195c0 -80 24.667 -146.333 74 -199s111.333 -79 186 -79
c34.667 0 65.834 6 93.501 18s58.5 32.667 92.5 62l158 -170c-105.333 -94.667 -227 -142 -365 -142c-144.667 0 -264.334 47.5 -359.001 142.5s-142 214.833 -142 359.5z" />
    <glyph glyph-name="d" unicode="d" horiz-adv-x="1243" 
d="M70 465c0 168 54.334 300.334 163.001 397.001c92 79.333 195.333 119 310 119c64 0 120.667 -10.833 170 -32.5s97 -56.5 143 -104.5v522h260v-1366h-260v125c-41.333 -56.667 -86.333 -97.167 -135 -121.5s-109.334 -36.5 -182.001 -36.5
c-139.333 0 -252.333 46.167 -339 138.5s-130 212.166 -130 359.499zM346.001 465.001c0 -82 24.335 -150.333 73.002 -205s109.667 -82 183 -82c71.333 0 131.5 27.667 180.5 83s73.5 124 73.5 206c0 84.667 -23.833 155 -71.5 211s-107.834 84 -180.501 84
c-74.667 0 -136.334 -28 -185.001 -84s-73 -127 -73 -213z" />
    <glyph glyph-name="e" unicode="e" horiz-adv-x="1138" 
d="M68 475c0 148.667 46.667 270.166 140 364.499s213.666 141.5 360.999 141.5c150.667 0 273.667 -48.167 369 -144.5s143 -220.833 143 -373.5c0 -22 -0.666992 -39 -2 -51h-741c11.333 -65.333 39.333 -117.166 84 -155.499s99.334 -57.5 164.001 -57.5
c48 0 91.333 11 130 33s68.334 52 89.001 90l239 -66c-47.333 -92 -110.833 -163.167 -190.5 -213.5s-169.5 -75.5 -269.5 -75.5c-150.667 0 -274.334 47.833 -371.001 143.5s-145 217.167 -145 364.5zM338 560.999h475c-11.333 62.667 -38.5 111.834 -81.5 147.501
s-96.5 53.5 -160.5 53.5c-62.667 0 -114 -17.333 -154 -52s-66.333 -84.334 -79 -149.001z" />
    <glyph glyph-name="f" unicode="f" horiz-adv-x="585" 
d="M43 729v219h104v53c0 128 30.667 221 92 279c60.667 57.333 156.667 86 288 86h5v-240c-46 -6 -78.167 -18.333 -96.5 -37s-27.5 -48 -27.5 -88v-53h124v-219h-124v-729h-261v729h-104z" />
    <glyph glyph-name="g" unicode="g" horiz-adv-x="1206" 
d="M39 467c0 153.333 43.832 277.332 131.499 371.999s202.167 142 343.5 142c66 0 123.333 -12 172 -36s93.667 -62 135 -114v117h256v-878c0 -97.333 -9.83301 -176.666 -29.5 -237.999s-52.167 -114 -97.5 -158c-95.333 -95.333 -226.333 -143 -393 -143
c-182.667 0 -337.667 62.667 -465 188l162 164c81.333 -87.333 179 -131 293 -131c86.667 0 154 24.833 202 74.5s72 118.5 72 206.5v96c-85.333 -108 -196.666 -162 -333.999 -162c-130 0 -237.167 47.167 -321.5 141.5s-126.5 213.833 -126.5 358.5zM314.999 476.999
c0 -81.333 23.999 -148 71.999 -200s109.333 -78 184 -78c39.333 0 77.333 8.5 114 25.5s66.334 39.833 89.001 68.5c28.667 39.333 43 93.333 43 162c0 103.333 -26 179 -78 227c-47.333 45.333 -104 68 -170 68c-74.667 0 -135.667 -25.5 -183 -76.5
s-71 -116.5 -71 -196.5z" />
    <glyph glyph-name="h" unicode="h" horiz-adv-x="1083" 
d="M129 0v1366h260v-520c38.667 46.667 78.834 80.834 120.501 102.501s88.167 32.5 139.5 32.5c40 0 81.167 -8.16699 123.5 -24.5s77.166 -37.5 104.499 -63.5c30.667 -28.667 52.334 -63.334 65.001 -104.001s19 -95.334 19 -164.001v-625h-261v588
c0 53.333 -12.833 95.666 -38.5 126.999s-59.834 47 -102.501 47c-46.667 0 -85.667 -15.667 -117 -47c-20 -19.333 -33.833 -39.833 -41.5 -61.5s-11.5 -51.167 -11.5 -88.5v-565h-260z" />
    <glyph glyph-name="i" unicode="i" horiz-adv-x="518" 
d="M115 1221c0 41.333 13.667 75.499 41 102.499s62 40.5 104 40.5s76.333 -13.667 103 -41s40 -62.666 40 -105.999c0 -40 -13.833 -73.667 -41.5 -101s-61.5 -41 -101.5 -41c-42 0 -76.667 13.833 -104 41.5s-41 62.5 -41 104.5zM129 -0.000976562v948h260v-948h-260z" />
    <glyph glyph-name="j" unicode="j" horiz-adv-x="518" 
d="M-49 -197h39c44 0 78.167 14.667 102.5 44s36.5 70 36.5 122v979h260v-979c0 -140 -30 -241 -90 -303c-62.667 -68 -155.667 -102 -279 -102c-26.667 0 -49.667 0.666992 -69 2v237zM115 1221c0 41.333 13.667 75.499 41 102.499s62 40.5 104 40.5
s76.333 -13.667 103 -41s40 -62.666 40 -105.999c0 -40 -13.833 -73.667 -41.5 -101s-61.5 -41 -101.5 -41c-42 0 -76.667 13.833 -104 41.5s-41 62.5 -41 104.5z" />
    <glyph glyph-name="k" unicode="k" horiz-adv-x="968" 
d="M129 0v1366h260v-782l264 364h301l-321 -454l321 -494h-301l-264 393v-393h-260z" />
    <glyph glyph-name="l" unicode="l" horiz-adv-x="518" 
d="M129 0v1366h260v-1366h-260z" />
    <glyph glyph-name="m" unicode="m" horiz-adv-x="1622" 
d="M129 0l-0.000976562 948h260v-119c29.333 52 65 90.333 107 115s93 37 153 37c125.333 0 211.333 -52.667 258 -158c60.667 105.333 156.334 158 287.001 158c98 0 174.333 -29.333 229 -88c28.667 -30.667 48.5 -65.667 59.5 -105s16.5 -95 16.5 -167v-621h-260v571
c0 127.333 -48.333 191 -145 191c-48 0 -85.333 -16.667 -112 -50s-40 -80.333 -40 -141v-571h-260v563c0 132.667 -47.667 199 -143 199c-100 0 -150 -66.333 -150 -199v-563h-260z" />
    <glyph glyph-name="n" unicode="n" horiz-adv-x="1087" 
d="M129 0l0.000976562 948h260v-117c34 54.667 70.667 93.334 110 116.001s88.666 34 147.999 34c44.667 0 87.667 -7.83301 129 -23.5s76.333 -37.167 105 -64.5c30.667 -30.667 52.334 -67.834 65.001 -111.501s19 -104.167 19 -181.5v-600h-260v588
c0 47.333 -7.66699 84 -23 110c-12.667 19.333 -30.334 34.833 -53.001 46.5s-46.667 17.5 -72 17.5c-50 0 -90.5 -17.333 -121.5 -52s-46.5 -79.667 -46.5 -135v-575h-260z" />
    <glyph glyph-name="o" unicode="o" horiz-adv-x="1163" 
d="M68 473c0 149.333 48.167 271.331 144.5 365.998s220.833 142 373.5 142c149.333 0 272.333 -48.667 369 -146s145 -220.666 145 -369.999c0 -139.333 -50 -257.166 -150 -353.499s-222.667 -144.5 -368 -144.5c-149.333 0 -272.333 47.5 -369 142.5
s-145 216.167 -145 363.5zM330 472.998c0 -82 23.334 -148.165 70.001 -198.498s108 -75.5 184 -75.5c74.667 0 135.667 25.167 183 75.5s71 115.166 71 194.499c0 85.333 -22.833 153.166 -68.5 203.499s-106.834 75.5 -183.501 75.5s-138.5 -25.333 -185.5 -76
s-70.5 -117 -70.5 -199z" />
    <glyph glyph-name="p" unicode="p" horiz-adv-x="1247" 
d="M129 -424l0.000976562 1372h260v-117c39.333 52 83.5 90 132.5 114s108.5 36 178.5 36c95.333 0 183.666 -26 264.999 -78c143.333 -98 215 -242 215 -432c0 -151.333 -43.167 -273.166 -129.5 -365.499s-200.833 -138.5 -343.5 -138.5c-134 0 -240 45 -318 135v-526
h-260zM389.001 462.999c0 -86 22.999 -155.334 68.999 -208.001s107 -79 183 -79s138.333 27.167 187 81.5s73 123.5 73 207.5c0 86.667 -23.667 157.834 -71 213.501s-107.666 83.5 -180.999 83.5c-76.667 0 -139.167 -27.833 -187.5 -83.5s-72.5 -127.5 -72.5 -215.5z" />
    <glyph glyph-name="q" unicode="q" horiz-adv-x="1243" 
d="M68 467c0 151.333 44.833 274.834 134.5 370.501s205.834 143.5 348.501 143.5c67.333 0 124.666 -11 171.999 -33s91 -58 131 -108v108h260v-1372h-260v526c-42 -46.667 -88.833 -80.834 -140.5 -102.501s-112.167 -32.5 -181.5 -32.5
c-138 0 -249.833 46.167 -335.5 138.5s-128.5 212.833 -128.5 361.5zM346 471.001c0 -84 23.833 -153.833 71.5 -209.5s107.834 -83.5 180.501 -83.5c73.333 0 134.666 27.667 183.999 83s74 124 74 206c0 86 -24 156.667 -72 212s-108.667 83 -182 83
c-74.667 0 -136 -27.5 -184 -82.5s-72 -124.5 -72 -208.5z" />
    <glyph glyph-name="r" unicode="r" horiz-adv-x="681" 
d="M129 0v948h260v-139c13.333 35.333 25.833 61.666 37.5 78.999s27.167 33.333 46.5 48c42.667 30 94 45 154 45c10.667 0 20.667 -0.666992 30 -2v-266c-26.667 2.66699 -45 4 -55 4c-36 0 -69.333 -7.66699 -100 -23s-55.334 -36.333 -74.001 -63
c-15.333 -21.333 -25.666 -44.166 -30.999 -68.499s-8 -59.5 -8 -105.5v-457h-260z" />
    <glyph glyph-name="s" unicode="s" horiz-adv-x="858" 
d="M53 279l250.004 -0.00195312c6 -41.333 18.833 -71.5 38.5 -90.5s48.5 -28.5 86.5 -28.5c30.667 0 55.667 8.33301 75 25s29 38.334 29 65.001c0 28.667 -12 51.667 -36 69s-70.667 36.666 -140 57.999c-102 30.667 -177 70.5 -225 119.5s-72 110.167 -72 183.5
c0 90 33.667 162.667 101 218s156 83 266 83c108.667 0 194 -27 256 -81s94.667 -129.333 98 -226h-245v16c0 28.667 -11.333 52.167 -34 70.5s-51.667 27.5 -87 27.5c-30.667 0 -55.834 -8 -75.501 -24s-29.5 -36.667 -29.5 -62c0 -24.667 9 -45 27 -61
c15.333 -11.333 29.166 -19.333 41.499 -24s52.5 -17.667 120.5 -39c106.667 -33.333 182.834 -73.166 228.501 -119.499s68.5 -107.833 68.5 -184.5c0 -92 -33.833 -166.167 -101.5 -222.5s-156.834 -84.5 -267.501 -84.5c-112.667 0 -201.834 27.333 -267.501 82
s-100.834 131.334 -105.501 230.001z" />
    <glyph glyph-name="t" unicode="t" horiz-adv-x="579" 
d="M33 733v219h108v254h260v-254h119v-219h-119v-454c0 -22 5.83301 -37.833 17.5 -47.5s30.5 -14.5 56.5 -14.5h45v-217h-207c-61.333 0 -105.333 14 -132 42s-40 74 -40 138v553h-108z" />
    <glyph glyph-name="u" unicode="u" horiz-adv-x="1052" 
d="M111 348v600.001h260v-583c0 -53.333 14.5 -96.5 43.5 -129.5s66.833 -49.5 113.5 -49.5c48 0 85.667 14.5 113 43.5s41 68.5 41 118.5v600h260v-600c0 -70 -8 -126.333 -24 -169s-43.333 -80.334 -82 -113.001c-77.333 -66 -180 -99 -308 -99
c-135.333 0 -241 35 -317 105c-66.667 60 -100 152 -100 276z" />
    <glyph glyph-name="v" unicode="v" horiz-adv-x="948" 
d="M-4 948h270l209 -565l211 565h266l-346 -948h-268z" />
    <glyph glyph-name="w" unicode="w" horiz-adv-x="1490" 
d="M-4 948h264l191 -577l165 577h250l170 -577l193 577h264l-309 -948h-271l-165 582l-170 -582h-277z" />
    <glyph glyph-name="x" unicode="x" horiz-adv-x="983" 
d="M-2 948h328l174 -252l168 252h317l-338 -477l332 -471h-315l-164 258l-174 -258h-308l330 471z" />
    <glyph glyph-name="y" unicode="y" horiz-adv-x="960" 
d="M-4 948h276l193 -563l221 563h277l-535 -1380h-278l178 455z" />
    <glyph glyph-name="z" unicode="z" horiz-adv-x="862" 
d="M31 0l399 729h-362v219h768l-396 -729h367v-219h-776z" />
    <glyph glyph-name="braceleft" unicode="{" 
d="M211 393v223.001c40.667 10 70 28.833 88 56.5s27 67.167 27 118.5v311c0 100.667 22.333 172.334 67 215.001c28.667 27.333 62.5 45.666 101.5 54.999s102.833 14 191.5 14c53.333 0 93 -0.666992 119 -2v-258c-83.333 1.33301 -137.666 -8.5 -162.999 -29.5
s-38 -66.167 -38 -135.5v-218c0 -66 -8.33301 -116.333 -25 -151s-47.334 -66 -92.001 -94c44 -26.667 74.5 -58 91.5 -94s25.5 -86.667 25.5 -152v-223c0 -72 12.5 -118.667 37.5 -140s79.5 -32 163.5 -32v-244c-32.667 -1.33301 -73 -2 -121 -2
c-97.333 0 -166.333 6.16699 -207 18.5s-74.667 37.5 -102 75.5c-32.667 44.667 -49 113 -49 205v297c0 57.333 -8.66699 100.166 -26 128.499s-47 47.5 -89 57.5z" />
    <glyph glyph-name="bar" unicode="|" 
d="M371 -342v1708h284v-1708h-284z" />
    <glyph glyph-name="braceright" unicode="}" 
d="M221 -129c83.333 0 137.33 10.334 161.997 31.001s37 65.667 37 135v219c0 66 8.33301 116.333 25 151s47.334 65.667 92.001 93c-44 26.667 -74.5 58.167 -91.5 94.5s-25.5 87.5 -25.5 153.5v223c0 71.333 -12.167 117.5 -36.5 138.5s-78.5 31.5 -162.5 31.5v243
c31.333 1.33301 71 2 119 2c97.333 0 166.333 -6 207 -18s74.667 -36.667 102 -74c32.667 -46.667 49 -115.667 49 -207v-294c0 -58.667 8.83301 -102 26.5 -130s47.834 -47 90.501 -57v-225c-41.333 -10 -71.166 -28.5 -89.499 -55.5s-27.5 -66.5 -27.5 -118.5v-311
c0 -100.667 -22.333 -172.334 -67 -215.001c-28.667 -28 -62.5 -46.667 -101.5 -56s-102.167 -14 -189.5 -14c-48 0 -87.667 0.666992 -119 2v258z" />
    <glyph glyph-name="asciitilde" unicode="~" horiz-adv-x="1366" 
d="M190 1255c76 182 176.672 273 302.005 273c46 0 123 -24 231 -72c54.667 -24.667 91 -40 109 -46s35.667 -9 53 -9c29.333 0 56.166 10.167 80.499 30.5s49.166 53.833 74.499 100.5l140 -115c-41.333 -96.667 -86.333 -165.5 -135 -206.5s-110.334 -61.5 -185.001 -61.5
c-27.333 0 -52.833 4 -76.5 12s-73.834 29.333 -150.501 64c-70 31.333 -121.333 47 -154 47c-28.667 0 -54.334 -10 -77.001 -30s-46.667 -53.667 -72 -101z" />
    <glyph glyph-name="uni00A0" unicode="&#xa0;" horiz-adv-x="614" 
 />
    <glyph glyph-name="exclamdown" unicode="&#xa1;" horiz-adv-x="587" 
d="M143 827c0 42.667 14.5 78.333 43.5 107s65.167 43 108.5 43c44 0 80.167 -14.333 108.5 -43s42.5 -65 42.5 -109s-14.333 -80.167 -43 -108.5s-65.334 -42.5 -110.001 -42.5c-43.333 0 -79.166 14.5 -107.499 43.5s-42.5 65.5 -42.5 109.5zM166 -416.001v940h256v-940
h-256z" />
    <glyph glyph-name="cent" unicode="&#xa2;" 
d="M100 655c0 94.667 18.4971 179.997 55.4971 255.997s88.833 135.667 155.5 179c33.333 20.667 66.5 36.334 99.5 47.001s75.833 19.334 128.5 26.001v150h96v-150c116.667 -9.33301 222.334 -59.666 317.001 -150.999l-168 -152c-23.333 24.667 -46.166 43 -68.499 55
s-49.166 20.333 -80.499 25v-557c51.333 3.33301 101 26 149 68l154 -158c-80.667 -77.333 -181.667 -121.666 -303 -132.999v-199h-96v199c-52.667 8 -96.167 18.167 -130.5 30.5s-69.5 30.166 -105.5 53.499c-135.333 92.667 -203 229.667 -203 411zM347.997 663.997
c0 -150 63.667 -243.667 191 -281v557c-127.333 -36.667 -191 -128.667 -191 -276z" />
    <glyph glyph-name="sterling" unicode="&#xa3;" 
d="M63 0c0.666992 92 27.1689 169.333 79.502 232s116.166 94.667 191.499 96c10.667 19.333 21 35 31 47c22.667 38 34 70.667 34 98c0 59.333 -28 113.333 -84 162h-235v125h135c-34 42.667 -57.167 80.667 -69.5 114s-18.5 73 -18.5 119
c0 111.333 39 203.666 117 276.999s177 110 297 110c68.667 0 134 -14.333 196 -43s112 -67.334 150 -116.001c21.333 -27.333 36.666 -57.166 45.999 -89.499s15 -74.833 17 -127.5h-235c1.33301 4 2 8.66699 2 14c0 44 -16.333 82 -49 114s-71.667 48 -117 48
c-44.667 0 -83.167 -16.333 -115.5 -49s-48.5 -71.667 -48.5 -117c0 -40 9 -76.833 27 -110.5s54.667 -81.5 110 -143.5h279v-125h-213c18.667 -33.333 31.167 -59.166 37.5 -77.499s9.5 -38.166 9.5 -59.499c0 -30.667 -7 -60.334 -21 -89.001s-39.667 -66 -77 -112l14 -4
l47 -19c20 -5.33301 39.667 -14 59 -26c40 -21.333 70.833 -35.5 92.5 -42.5s43.5 -10.5 65.5 -10.5c22.667 0 42.5 4.5 59.5 13.5s36.833 25.5 59.5 49.5l27 -174c-59.333 -68 -129 -102 -209 -102c-32.667 0 -64.667 6 -96 18s-84.666 38.667 -159.999 80
c-51.333 28.667 -93 43 -125 43c-31.333 0 -56.833 -11 -76.5 -33s-29.834 -52 -30.501 -90h-203z" />
    <glyph glyph-name="currency" unicode="&#xa4;" horiz-adv-x="1452" 
d="M96 1178l147.998 146.999l209 -209c58.667 31.333 107.334 52.833 146.001 64.5s81.334 17.5 128.001 17.5s88 -5.33301 124 -16s84 -32 144 -64l209 205l146 -145l-203 -203c58.667 -94.667 88 -188.334 88 -281.001c0 -44.667 -6 -86.167 -18 -124.5
s-33.333 -86.166 -64 -143.499l203 -203l-146 -147l-200 203c-92.667 -59.333 -183.667 -89 -273 -89s-187 29.667 -293 89l-200 -201l-146 145l201 203c-54.667 84.667 -82 175.334 -82 272.001c0 45.333 6.5 88.5 19.5 129.5s35.833 89.5 68.5 145.5zM464.998 697.999
c0 -71.333 25.834 -132.833 77.501 -184.5s113.167 -77.5 184.5 -77.5c72 0 133.667 25.667 185 77s77 113 77 185c0 71.333 -25.333 133 -76 185s-111.334 78 -182.001 78c-74.667 0 -137.667 -25.5 -189 -76.5s-77 -113.167 -77 -186.5z" />
    <glyph glyph-name="yen" unicode="&#xa5;" 
d="M18 1358h279l221 -518l217 518h269l-213 -451h172v-135h-236l-80 -174v-14h275v-135h-275v-449h-264v449h-283v135h283v14l-82 174h-242v135h177z" />
    <glyph glyph-name="brokenbar" unicode="&#xa6;" 
d="M371 313h284v-655h-284v655zM371 651v715h284v-715h-284z" />
    <glyph glyph-name="section" unicode="&#xa7;" 
d="M86 494c0 83.333 20.3369 153.332 61.0039 209.999s99 95.667 175 117c-116.667 54 -175 142 -175 264c0 91.333 33.5 165.833 100.5 223.5s153.833 86.5 260.5 86.5c73.333 0 140.333 -13.833 201 -41.5s106.334 -65.167 137.001 -112.5
c29.333 -46 45.666 -106.667 48.999 -182h-225c-4 46.667 -19.667 83.167 -47 109.5s-63 39.5 -107 39.5c-40.667 0 -75 -12.5 -103 -37.5s-42 -56.167 -42 -93.5c0 -38 16.333 -71.333 49 -100c19.333 -15.333 39.5 -28 60.5 -38s60.833 -26 119.5 -48
c122 -46.667 208.833 -98.667 260.5 -156s77.5 -129.666 77.5 -216.999c0 -147.333 -73 -255.666 -219 -324.999c56.667 -32.667 98.167 -70.334 124.5 -113.001s39.5 -92.667 39.5 -150c0 -99.333 -36 -181.166 -108 -245.499s-163.667 -96.5 -275 -96.5
c-72 0 -136.833 13.833 -194.5 41.5s-104.167 67.167 -139.5 118.5c-20.667 30.667 -35.334 61 -44.001 91s-14 68.667 -16 116h228c0.666992 -55.333 16.667 -99.5 48 -132.5s72.666 -49.5 123.999 -49.5c44 0 80.5 14.333 109.5 43s43.5 64.667 43.5 108
c0 50 -21 89 -63 117c-18.667 13.333 -37.5 24.166 -56.5 32.499s-56.833 21.5 -113.5 39.5c-62.667 20.667 -113.334 41.5 -152.001 62.5s-71.334 45.167 -98.001 72.5c-60 64 -90 146 -90 246zM305.004 501.999c0 -56.667 19.499 -103.667 58.499 -141
s87.833 -56 146.5 -56s107.5 18.667 146.5 56s58.5 84.333 58.5 141c0 52 -20 97.333 -60 136s-87.667 58 -143 58c-57.333 0 -106.166 -18.667 -146.499 -56s-60.5 -83.333 -60.5 -138z" />
    <glyph glyph-name="dieresis" unicode="&#xa8;" 
d="M156 1241c0 39.333 13.167 72 39.5 98s59.5 39 99.5 39c38 0 70 -13.167 96 -39.5s39 -59.5 39 -99.5c0 -38 -13.333 -70 -40 -96s-59 -39 -97 -39c-39.333 0 -72 13 -98 39s-39 58.667 -39 98zM592 1241c0 39.333 13.167 72 39.5 98s59.5 39 99.5 39
c38 0 70 -13.167 96 -39.5s39 -59.5 39 -99.5c0 -38 -13.333 -70 -40 -96s-59 -39 -97 -39c-39.333 0 -72 13 -98 39s-39 58.667 -39 98z" />
    <glyph glyph-name="copyright" unicode="&#xa9;" horiz-adv-x="1581" 
d="M82 682c0 130 31.8369 249.501 95.5039 358.501s150.667 195 261 258s231.166 94.5 362.499 94.5c92.667 0 182 -19 268 -57s160.167 -89 222.5 -153s112.166 -139.833 149.499 -227.5s56 -178.834 56 -273.501c0 -76.667 -11.833 -151.167 -35.5 -223.5
s-57.334 -137.5 -101.001 -195.5s-94.5 -108.833 -152.5 -152.5s-122.833 -77.5 -194.5 -101.5s-145.834 -36 -222.501 -36c-127.333 0 -245.5 31.833 -354.5 95.5s-195.333 150 -259 259s-95.5 227.167 -95.5 354.5zM215.004 682.001c0 -79.333 15.333 -155.17 46 -227.503
s71.834 -134.666 123.501 -186.999s113 -94 184 -125s145.167 -46.5 222.5 -46.5c103.333 0 199 26.333 287 79s157.667 124 209 214s77 187.667 77 293c0 78.667 -15.167 154.334 -45.5 227.001s-70.833 135.334 -121.5 188.001s-110.834 94.667 -180.501 126
s-142.167 47 -217.5 47c-80.667 0 -157.167 -15.333 -229.5 -46s-134.333 -72 -186 -124s-92.667 -114.333 -123 -187s-45.5 -149.667 -45.5 -231zM403.004 687.997c0 122 36.8311 221.499 110.498 298.499s168.834 115.5 285.501 115.5c94.667 0 175.167 -27.5 241.5 -82.5
s103.166 -124.5 110.499 -208.5h-131c-11.333 45.333 -36.333 80.833 -75 106.5s-86.667 38.5 -144 38.5c-69.333 0 -124.666 -24.5 -165.999 -73.5s-62 -114.5 -62 -196.5c0 -80.667 20.5 -145.167 61.5 -193.5s95.833 -72.5 164.5 -72.5c63.333 0 115.333 16.333 156 49
s65 78.334 73 137.001h131c-8 -101.333 -45.167 -182 -111.5 -242s-151.166 -90 -254.499 -90c-116 0 -210 38 -282 114s-108 176 -108 300z" />
    <glyph glyph-name="ordfeminine" unicode="&#xaa;" horiz-adv-x="806" 
d="M49 825c0 90 28.833 164.5 86.5 223.5s130.5 88.5 218.5 88.5c74.667 0 136.334 -25.333 185.001 -76v57h178v-571h-178v61c-50.667 -54.667 -116.334 -82 -197.001 -82c-85.333 0 -155.5 28.167 -210.5 84.5s-82.5 127.833 -82.5 214.5zM238 827
c0 -46 13.999 -84.667 41.999 -116s63 -47 105 -47c42.667 0 79.334 16.333 110.001 49s46 72 46 118c0 48 -14.333 87 -43 117s-65.667 45 -111 45c-44 0 -79.833 -15.667 -107.5 -47s-41.5 -71 -41.5 -119z" />
    <glyph glyph-name="guillemotleft" unicode="&#xab;" horiz-adv-x="866" 
d="M76 487l194 347h170l-196 -347l196 -333h-170zM414 487l194 347h170l-196 -347l196 -333h-170z" />
    <glyph glyph-name="logicalnot" unicode="&#xac;" 
d="M68 342v248h886v-590h-274v342h-612z" />
    <glyph glyph-name="uni00AD" unicode="&#xad;" horiz-adv-x="454" 
d="M0 385v229h455v-229h-455z" />
    <glyph glyph-name="registered" unicode="&#xae;" horiz-adv-x="1581" 
d="M82 682c0 130 31.8359 249.499 95.5029 358.499s150.667 195 261 258s231.166 94.5 362.499 94.5c124 0 239.5 -32 346.5 -96s192 -150.667 255 -260s94.5 -227.666 94.5 -354.999c0 -76.667 -11.833 -151.167 -35.5 -223.5s-57.334 -137.5 -101.001 -195.5
s-94.5 -108.833 -152.5 -152.5s-122.833 -77.5 -194.5 -101.5s-145.834 -36 -222.501 -36c-127.333 0 -245.5 31.833 -354.5 95.5s-195.333 150 -259 259s-95.5 227.167 -95.5 354.5zM215.003 681.999c0 -79.333 15.333 -155.17 46 -227.503
s71.834 -134.666 123.501 -186.999s113 -94 184 -125s145.167 -46.5 222.5 -46.5c103.333 0 199 26.167 287 78.5s157.667 123.5 209 213.5s77 188 77 294c0 78.667 -15.167 154.334 -45.5 227.001s-70.833 135.334 -121.5 188.001s-110.834 94.667 -180.501 126
s-142.167 47 -217.5 47c-80.667 0 -157.167 -15.333 -229.5 -46s-134.333 -72 -186 -124s-92.667 -114.333 -123 -187s-45.5 -149.667 -45.5 -231zM489.003 290.995l0.00195312 792h334c94 0 165.667 -19 215 -57s74 -92.667 74 -164c0 -91.333 -45 -156 -135 -194
c47.333 -19.333 79.166 -46 95.499 -80s25.5 -92.667 27.5 -176c3.33301 -58 10 -98.333 20 -121h-162c-8.66699 20 -15.334 71.667 -20.001 155c-5.33301 72 -22.333 118.667 -51 140c-25.333 20 -64.333 30 -117 30h-113v-325h-168zM657.005 716.995h127
c106.667 0 160 44.333 160 133c0 44 -12 76.5 -36 97.5s-61 31.5 -111 31.5h-140v-262z" />
    <glyph glyph-name="macron" unicode="&#xaf;" 
d="M326 1176v114h372v-114h-372z" />
    <glyph glyph-name="degree" unicode="&#xb0;" 
d="M197 1057c0 88 30.668 162.833 92.001 224.5s135.666 92.5 222.999 92.5c88 0 162.5 -31 223.5 -93s91.5 -138 91.5 -228c0 -85.333 -31 -159 -93 -221s-135.333 -93 -220 -93c-88 0 -162.833 31 -224.5 93s-92.5 137 -92.5 225zM311.001 1057
c0 -56.667 19.667 -105.332 59 -145.999s86.666 -61 141.999 -61c54.667 0 101.834 20.167 141.501 60.5s59.5 87.833 59.5 142.5c0 58.667 -19.667 108.5 -59 149.5s-87.333 61.5 -144 61.5c-54.667 0 -101.5 -20.333 -140.5 -61s-58.5 -89.334 -58.5 -146.001z" />
    <glyph glyph-name="plusminus" unicode="&#xb1;" 
d="M25 59v136h972v-136h-972zM25 672v135h415v405h140v-405h417v-135h-417v-393h-140v393h-415z" />
    <glyph glyph-name="uni00B2" unicode="&#xb2;" horiz-adv-x="675" 
d="M39 543l307 439.998c31.333 45.333 52.166 78 62.499 98s15.5 38.667 15.5 56c0 24.667 -8.83301 44.834 -26.5 60.501s-40.167 23.5 -67.5 23.5c-36 0 -62 -10.5 -78 -31.5s-24.333 -55.833 -25 -104.5h-166v19c0 82 25.5 147.833 76.5 197.5s118.5 74.5 202.5 74.5
c76.667 0 139.834 -21 189.501 -63s74.5 -95.333 74.5 -160c0 -38.667 -8 -77.167 -24 -115.5s-43.333 -83.166 -82 -134.499l-152 -209h236v-151h-543z" />
    <glyph glyph-name="uni00B3" unicode="&#xb3;" horiz-adv-x="675" 
d="M41 776l162 5.99902c4.66699 -31.333 16.834 -55.833 36.501 -73.5s44.167 -26.5 73.5 -26.5c35.333 0 65 11.333 89 34s36 50.334 36 83.001c0 34 -11.667 61.833 -35 83.5s-53.333 32.5 -90 32.5c-28.667 0 -54.334 -7.33301 -77.001 -22l-103 80l191 239h-240v148h543
l-238 -303c66 -6 119.667 -32.167 161 -78.5s62 -102.833 62 -169.5c0 -80.667 -27.833 -147.667 -83.5 -201s-125.5 -80 -209.5 -80c-48.667 0 -93.5 9.66699 -134.5 29s-73.833 46 -98.5 80c-22.667 32.667 -37.667 79 -45 139z" />
    <glyph glyph-name="acute" unicode="&#xb4;" 
d="M391 1092l170 284h262l-272 -284h-160z" />
    <glyph glyph-name="uni00B5" unicode="&#xb5;" 
d="M70 -346l-0.000976562 1329h239v-522c0 -56.667 2.83301 -98.334 8.5 -125.001s17.834 -52 36.501 -76c42 -54.667 93.333 -82 154 -82c63.333 0 113.333 26.333 150 79s55 124 55 214v512h239v-983h-239v147c-43.333 -113.333 -113 -170 -209 -170
c-43.333 0 -80.333 10 -111 30s-58.667 53 -84 99v-452h-239z" />
    <glyph glyph-name="paragraph" unicode="&#xb6;" 
d="M61 997c0 67.333 15.833 129.833 47.5 187.5s74.167 101.167 127.5 130.5c60.667 34 141.667 51 243 51h410v-1581h-135v1493h-164v-1493h-137v848h-31c-108 2 -195.167 36.333 -261.5 103s-99.5 153.667 -99.5 261z" />
    <glyph glyph-name="periodcentered" unicode="&#xb7;" horiz-adv-x="534" 
d="M117 506c0 44 14.333 80.168 43 108.501s65.334 42.5 110.001 42.5c43.333 0 79.166 -14.5 107.499 -43.5s42.5 -65.5 42.5 -109.5c0 -42.667 -14.5 -78.334 -43.5 -107.001s-65.167 -43 -108.5 -43c-44 0 -80.167 14.333 -108.5 43s-42.5 65 -42.5 109z" />
    <glyph glyph-name="cedilla" unicode="&#xb8;" 
d="M326 -332c43.333 21.333 80.3311 49 110.998 83s58.334 77.333 83.001 130l180 -76c-33.333 -51.333 -71.166 -95 -113.499 -131s-94.5 -68.667 -156.5 -98z" />
    <glyph glyph-name="uni00B9" unicode="&#xb9;" horiz-adv-x="675" 
d="M156 1061v160l336 163v-841h-181v596z" />
    <glyph glyph-name="ordmasculine" unicode="&#xba;" horiz-adv-x="757" 
d="M51 834c0 90 30.668 163.332 92.001 219.999s140.666 85 237.999 85c94 0 171.833 -29.333 233.5 -88s92.5 -132.667 92.5 -222c0 -84.667 -32 -156 -96 -214s-142 -87 -234 -87c-94 0 -171.833 28.833 -233.5 86.5s-92.5 130.834 -92.5 219.501zM229.001 833.999
c0 -45.333 13.9971 -82.333 41.9971 -111s64 -43 108 -43c42.667 0 77.834 14.167 105.501 42.5s41.5 64.5 41.5 108.5c0 48 -13.167 86 -39.5 114s-62.166 42 -107.499 42s-81.666 -14 -108.999 -42s-41 -65 -41 -111z" />
    <glyph glyph-name="guillemotright" unicode="&#xbb;" horiz-adv-x="866" 
d="M88 158l197 346l-197 334h170l195 -334l-195 -346h-170zM426 158l197 346l-197 334h170l195 -334l-195 -346h-170z" />
    <glyph glyph-name="onequarter" unicode="&#xbc;" horiz-adv-x="1611" 
d="M156 1061v160l336 163v-841h-181v596zM315 27l899 1359l82 -51l-901 -1362zM991 166v137l305 512h183v-502h77v-147h-77v-166h-174v166h-314zM1141 307h174v301z" />
    <glyph glyph-name="onehalf" unicode="&#xbd;" horiz-adv-x="1611" 
d="M156 1061v160l336 163v-841h-181v596zM315 27l899 1359l82 -51l-901 -1362zM973 0l307 440c32.667 45.333 53.834 77.666 63.501 96.999s14.5 38.333 14.5 57c0 23.333 -8.83301 42.833 -26.5 58.5s-40.167 23.5 -67.5 23.5c-36 0 -62 -10.167 -78 -30.5
s-24.333 -54.5 -25 -102.5h-166v16c0 82 25.5 147.833 76.5 197.5s118.5 74.5 202.5 74.5c77.333 0 140.666 -20.667 189.999 -62s74 -94.333 74 -159c0 -38.667 -8 -77.167 -24 -115.5s-43.333 -83.166 -82 -134.499l-152 -208h236v-152h-543z" />
    <glyph glyph-name="threequarters" unicode="&#xbe;" horiz-adv-x="1611" 
d="M41 776l162 5.99902c4.66699 -31.333 16.834 -55.833 36.501 -73.5s44.167 -26.5 73.5 -26.5c35.333 0 65 11.333 89 34s36 50.334 36 83.001c0 34 -11.667 61.833 -35 83.5s-53.333 32.5 -90 32.5c-28.667 0 -54.334 -7.33301 -77.001 -22l-103 80l191 239h-240v148h543
l-238 -303c66 -6 119.667 -32.167 161 -78.5s62 -102.833 62 -169.5c0 -80.667 -27.833 -147.667 -83.5 -201s-125.5 -80 -209.5 -80c-48.667 0 -93.5 9.66699 -134.5 29s-73.833 46 -98.5 80c-22.667 32.667 -37.667 79 -45 139zM315 26.999l899 1359l82 -51l-901 -1362z
M991 165.999v137l305 512h183v-502h77v-147h-77v-166h-174v166h-314zM1141 306.999h174v301z" />
    <glyph glyph-name="questiondown" unicode="&#xbf;" horiz-adv-x="915" 
d="M76 -72c0 66 14.3311 124.167 42.998 174.5s75.667 99.5 141 147.5c52.667 39.333 85.334 68.833 98.001 88.5s19 51.5 19 95.5v23c-1.33301 5.33301 -2 21 -2 47h262c1.33301 -22 2 -46.667 2 -74c0 -82 -11 -142.5 -33 -181.5s-73.667 -89.833 -155 -152.5
c-42 -32.667 -71 -61.167 -87 -85.5s-24 -51.166 -24 -80.499c0 -39.333 13 -71.666 39 -96.999s59.333 -38 100 -38c44.667 0 79.5 13.667 104.5 41s37.5 65.666 37.5 114.999h243c-3.33301 -123.333 -39.166 -219 -107.499 -287s-162.833 -102 -283.5 -102
c-116.667 0 -212 34.167 -286 102.5s-111 156.166 -111 263.499zM351.998 827c0 42.667 14.5 78.333 43.5 107s65.167 43 108.5 43c44 0 80.167 -14.333 108.5 -43s42.5 -65 42.5 -109s-14.333 -80.167 -43 -108.5s-65.334 -42.5 -110.001 -42.5
c-43.333 0 -79.166 14.5 -107.499 43.5s-42.5 65.5 -42.5 109.5z" />
    <glyph glyph-name="Agrave" unicode="&#xc0;" horiz-adv-x="1294" 
d="M4 0l471 1366h350l467 -1366h-307l-78 236h-524l-82 -236h-297zM322 1759h270l192 -272h-178zM455 465h379l-189 565z" />
    <glyph glyph-name="Aacute" unicode="&#xc1;" horiz-adv-x="1294" 
d="M4 0l471 1366h350l467 -1366h-307l-78 236h-524l-82 -236h-297zM455 465h379l-189 565zM514 1487l193 272h268l-283 -272h-178z" />
    <glyph glyph-name="Acircumflex" unicode="&#xc2;" horiz-adv-x="1294" 
d="M4 0l471 1366h350l467 -1366h-307l-78 236h-524l-82 -236h-297zM305 1487l232 274h237l217 -274h-182l-158 139l-164 -139h-182zM455 465h379l-189 565z" />
    <glyph glyph-name="Atilde" unicode="&#xc3;" horiz-adv-x="1294" 
d="M4 0l471 1366h350l467 -1366h-307l-78 236h-524l-82 -236h-297zM305 1509c10 46.667 21.167 82.666 33.5 107.999s29.833 49 52.5 71c40.667 36.667 84.334 55 131.001 55c19.333 0 41.5 -4 66.5 -12s71.167 -26 138.5 -54c18 -6.66699 32.333 -10 43 -10
c34.667 0 60.667 26 78 78l170 -14c-41.333 -154.667 -114.333 -232 -219 -232c-18 0 -35.833 2.33301 -53.5 7s-49.834 15.334 -96.501 32.001c-56.667 22 -92 33 -106 33c-36 0 -58 -24 -66 -72zM455 464.999h379l-189 565z" />
    <glyph glyph-name="Adieresis" unicode="&#xc4;" horiz-adv-x="1294" 
d="M4 0l471 1366h350l467 -1366h-307l-78 236h-524l-82 -236h-297zM287 1640c0 39.333 13.834 72.832 41.501 100.499s60.834 41.5 99.501 41.5c40 0 73.5 -14 100.5 -42s40.5 -62 40.5 -102c0 -38 -13.833 -70.667 -41.5 -98s-60.834 -41 -99.501 -41
s-71.834 13.833 -99.501 41.5s-41.5 60.834 -41.5 99.501zM455.001 464.999h379l-189 565zM723.001 1640c0 39.333 13.833 72.832 41.5 100.499s60.834 41.5 99.501 41.5c40 0 73.667 -14 101 -42s41 -62 41 -102c0 -38 -14 -70.667 -42 -98s-61.333 -41 -100 -41
s-71.834 13.833 -99.501 41.5s-41.5 60.834 -41.5 99.501z" />
    <glyph glyph-name="Aring" unicode="&#xc5;" horiz-adv-x="1294" 
d="M4 0l471 1366h350l467 -1366h-307l-78 236h-524l-82 -236h-297zM455 465h379l-189 565zM459 1634c0 52 18.5 96.167 55.5 132.5s81.833 54.5 134.5 54.5c53.333 0 98.166 -18.333 134.499 -55s54.5 -82 54.5 -136c0 -50 -18.667 -92.833 -56 -128.5
s-81.666 -53.5 -132.999 -53.5c-53.333 0 -98.333 18 -135 54s-55 80 -55 132zM555 1634c0 -25.333 9 -47.001 27 -65.001s40.333 -27 67 -27c24.667 0 46.167 8.83301 64.5 26.5s27.5 38.834 27.5 63.501c0 26.667 -9 49 -27 67s-39.667 27 -65 27
c-26.667 0 -49 -9 -67 -27s-27 -39.667 -27 -65z" />
    <glyph glyph-name="AE" unicode="&#xc6;" horiz-adv-x="1740" 
d="M-12 0l741 1366h920v-229h-467v-336h467v-230h-467v-342h467v-229h-748v274h-469l-145 -274h-299zM549 496h352v657z" />
    <glyph glyph-name="Ccedilla" unicode="&#xc7;" horiz-adv-x="1300" 
d="M76 680c0 136.667 28.832 259.329 86.499 367.996s138.167 193.334 241.5 254.001s220 91 350 91c106 0 198.333 -16.5 277 -49.5s158.334 -88.833 239.001 -167.5l-183 -185c-56 50.667 -109 87.334 -159 110.001s-103.333 34 -160 34c-120 0 -218 -41.667 -294 -125
s-114 -190.666 -114 -321.999c0 -132 39.667 -240.833 119 -326.5s180.333 -128.5 303 -128.5c120 0 221.667 46.667 305 140l170 -193c-79.333 -73.333 -158.333 -126.166 -237 -158.499s-168.667 -48.5 -270 -48.5c-212.667 0 -381.334 74.667 -506.001 224
c-53.333 64.667 -94.666 139.167 -123.999 223.5s-44 170.833 -44 259.5zM448.999 -338.005c114 53.333 180.667 125.667 200 217l248 -72c-64 -107.333 -172 -187 -324 -239z" />
    <glyph glyph-name="Egrave" unicode="&#xc8;" horiz-adv-x="948" 
d="M96 0v1366h760v-229h-479v-336h479v-230h-479v-342h479v-229h-760zM147 1759h271l192 -272h-178z" />
    <glyph glyph-name="Eacute" unicode="&#xc9;" horiz-adv-x="948" 
d="M96 0v1366h760v-229h-479v-336h479v-230h-479v-342h479v-229h-760zM340 1487l192 272h269l-283 -272h-178z" />
    <glyph glyph-name="Ecircumflex" unicode="&#xca;" horiz-adv-x="948" 
d="M96 0v1366h760v-229h-479v-336h479v-230h-479v-342h479v-229h-760zM133 1487l232 274h235l217 -274h-182l-158 139l-162 -139h-182z" />
    <glyph glyph-name="Edieresis" unicode="&#xcb;" horiz-adv-x="948" 
d="M96 0v1366h760v-229h-479v-336h479v-230h-479v-342h479v-229h-760zM113 1640c0 39.333 13.835 72.832 41.502 100.499s61.5 41.5 101.5 41.5c38.667 0 71.5 -14 98.5 -42s40.5 -62 40.5 -102c0 -38 -13.833 -70.667 -41.5 -98s-60.834 -41 -99.501 -41
s-71.834 13.833 -99.501 41.5s-41.5 60.834 -41.5 99.501zM549.002 1640c0 39.333 13.835 72.832 41.502 100.499s61.5 41.5 101.5 41.5c38.667 0 71.5 -14 98.5 -42s40.5 -62 40.5 -102c0 -38 -13.833 -70.667 -41.5 -98s-60.834 -41 -99.501 -41
s-71.834 13.833 -99.501 41.5s-41.5 60.834 -41.5 99.501z" />
    <glyph glyph-name="Igrave" unicode="&#xcc;" horiz-adv-x="565" 
d="M-43 1759h268l193 -272h-178zM143 0v1366h281v-1366h-281z" />
    <glyph glyph-name="Iacute" unicode="&#xcd;" horiz-adv-x="565" 
d="M143 0v1366h281v-1366h-281zM147 1487l195 272h268l-284 -272h-179z" />
    <glyph glyph-name="Icircumflex" unicode="&#xce;" horiz-adv-x="565" 
d="M-59 1487l231 274h236l217 -274h-181l-159 139l-162 -139h-182zM143 0v1366h281v-1366h-281z" />
    <glyph glyph-name="Idieresis" unicode="&#xcf;" horiz-adv-x="565" 
d="M-41 1640c0 39.333 13.834 72.832 41.501 100.499s61.5 41.5 101.5 41.5c38.667 0 71.667 -14 99 -42s41 -62 41 -102c0 -38 -14 -70.667 -42 -98s-61.333 -41 -100 -41s-71.834 13.833 -99.501 41.5s-41.5 60.834 -41.5 99.501zM143.001 -0.000976562v1366h281v-1366
h-281zM319.001 1640c0 39.333 14.001 72.832 42.001 100.499s62 41.5 102 41.5c38.667 0 71.5 -14 98.5 -42s40.5 -62 40.5 -102c0 -38 -13.833 -70.667 -41.5 -98s-60.834 -41 -99.501 -41c-39.333 0 -72.833 13.833 -100.5 41.5s-41.5 60.834 -41.5 99.501z" />
    <glyph glyph-name="Eth" unicode="&#xd0;" horiz-adv-x="1312" 
d="M10 582l0.000976562 219h133v565h387c110.667 0 205.167 -12.167 283.5 -36.5s147.833 -62.833 208.5 -115.5c70 -62 123.333 -137 160 -225s55 -185 55 -291c0 -109.333 -19 -211 -57 -305s-91.333 -172.333 -160 -235c-116.667 -105.333 -274.334 -158 -473.001 -158
h-404v582h-133zM424.001 231h53c75.333 0 137.833 7.33301 187.5 22s94.5 39 134.5 73c49.333 42 87.166 94.333 113.499 157s39.5 131.667 39.5 207c0 136 -38.667 244.833 -116 326.5s-180.666 122.5 -309.999 122.5h-102v-338h242v-219h-242v-351z" />
    <glyph glyph-name="Ntilde" unicode="&#xd1;" horiz-adv-x="1413" 
d="M143 0v1366h277l571 -852v852h281v-1366h-275l-573 864v-864h-281zM365 1509c10 46.667 21.166 82.666 33.499 107.999s29.833 49 52.5 71c38.667 36.667 82.334 55 131.001 55c19.333 0 41.333 -4 66 -12s70.667 -26 138 -54c18 -6.66699 32.333 -10 43 -10
c34.667 0 60 26 76 78l172 -14c-41.333 -154.667 -114.333 -232 -219 -232c-18 0 -35.5 2.33301 -52.5 7s-49.167 15.334 -96.5 32.001c-56.667 22 -93 33 -109 33c-34 0 -55 -24 -63 -72z" />
    <glyph glyph-name="Ograve" unicode="&#xd2;" horiz-adv-x="1564" 
d="M76 676c0 133.333 31.3301 254.832 93.9971 364.499s148.834 195.834 258.501 258.501s231.167 94 364.5 94c105.333 0 204.333 -21.667 297 -65s172.334 -105 239.001 -185c105.333 -128 158 -283.667 158 -467c0 -127.333 -31.167 -245 -93.5 -353
s-147.166 -193.333 -254.499 -256s-224.333 -94 -351 -94c-98 0 -191 18.333 -279 55s-163.667 86.167 -227 148.5s-113.5 137 -150.5 224s-55.5 178.833 -55.5 275.5zM359.997 679.999c0 -127.333 40.332 -234 120.999 -320s181 -129 301 -129
c116.667 0 215.834 42.833 297.501 128.5s122.5 190.5 122.5 314.5c0 132 -39.667 241.5 -119 328.5s-179 130.5 -299 130.5c-122 0 -223.167 -43 -303.5 -129s-120.5 -194 -120.5 -324zM454.996 1759h270l193 -272h-179z" />
    <glyph glyph-name="Oacute" unicode="&#xd3;" horiz-adv-x="1564" 
d="M76 676c0 133.333 31.3301 254.832 93.9971 364.499s148.834 195.834 258.501 258.501s231.167 94 364.5 94c105.333 0 204.333 -21.667 297 -65s172.334 -105 239.001 -185c105.333 -128 158 -283.667 158 -467c0 -127.333 -31.167 -245 -93.5 -353
s-147.166 -193.333 -254.499 -256s-224.333 -94 -351 -94c-98 0 -191 18.333 -279 55s-163.667 86.167 -227 148.5s-113.5 137 -150.5 224s-55.5 178.833 -55.5 275.5zM359.997 679.999c0 -127.333 40.332 -234 120.999 -320s181 -129 301 -129
c116.667 0 215.834 42.833 297.501 128.5s122.5 190.5 122.5 314.5c0 132 -39.667 241.5 -119 328.5s-179 130.5 -299 130.5c-122 0 -223.167 -43 -303.5 -129s-120.5 -194 -120.5 -324zM646.996 1487l193 272h268l-283 -272h-178z" />
    <glyph glyph-name="Ocircumflex" unicode="&#xd4;" horiz-adv-x="1564" 
d="M76 676c0 133.333 31.3301 254.832 93.9971 364.499s148.834 195.834 258.501 258.501s231.167 94 364.5 94c105.333 0 204.333 -21.667 297 -65s172.334 -105 239.001 -185c105.333 -128 158 -283.667 158 -467c0 -127.333 -31.167 -245 -93.5 -353
s-147.166 -193.333 -254.499 -256s-224.333 -94 -351 -94c-98 0 -191 18.333 -279 55s-163.667 86.167 -227 148.5s-113.5 137 -150.5 224s-55.5 178.833 -55.5 275.5zM359.997 679.999c0 -127.333 40.332 -234 120.999 -320s181 -129 301 -129
c116.667 0 215.834 42.833 297.501 128.5s122.5 190.5 122.5 314.5c0 132 -39.667 241.5 -119 328.5s-179 130.5 -299 130.5c-122 0 -223.167 -43 -303.5 -129s-120.5 -194 -120.5 -324zM437.996 1487l232 274h237l217 -274h-182l-158 139l-161 -139h-185z" />
    <glyph glyph-name="Otilde" unicode="&#xd5;" horiz-adv-x="1564" 
d="M76 676c0 133.333 31.3301 254.832 93.9971 364.499s148.834 195.834 258.501 258.501s231.167 94 364.5 94c105.333 0 204.333 -21.667 297 -65s172.334 -105 239.001 -185c105.333 -128 158 -283.667 158 -467c0 -127.333 -31.167 -245 -93.5 -353
s-147.166 -193.333 -254.499 -256s-224.333 -94 -351 -94c-98 0 -191 18.333 -279 55s-163.667 86.167 -227 148.5s-113.5 137 -150.5 224s-55.5 178.833 -55.5 275.5zM359.997 679.999c0 -127.333 40.332 -234 120.999 -320s181 -129 301 -129
c116.667 0 215.834 42.833 297.501 128.5s122.5 190.5 122.5 314.5c0 132 -39.667 241.5 -119 328.5s-179 130.5 -299 130.5c-122 0 -223.167 -43 -303.5 -129s-120.5 -194 -120.5 -324zM437.996 1509c10 46.667 21.3311 82.832 33.998 108.499s30.667 49.167 54 70.5
c38.667 36.667 81.667 55 129 55c19.333 0 41.5 -4 66.5 -12s71.167 -26 138.5 -54c18 -6.66699 32.333 -10 43 -10c34.667 0 60.667 26 78 78l170 -14c-41.333 -154.667 -113.666 -232 -216.999 -232c-19.333 0 -37.666 2.33301 -54.999 7s-49 15.334 -95 32.001
c-58.667 22 -94.667 33 -108 33c-36 0 -58 -24 -66 -72z" />
    <glyph glyph-name="Odieresis" unicode="&#xd6;" horiz-adv-x="1564" 
d="M76 676c0 133.333 31.3301 254.832 93.9971 364.499s148.834 195.834 258.501 258.501s231.167 94 364.5 94c105.333 0 204.333 -21.667 297 -65s172.334 -105 239.001 -185c105.333 -128 158 -283.667 158 -467c0 -127.333 -31.167 -245 -93.5 -353
s-147.166 -193.333 -254.499 -256s-224.333 -94 -351 -94c-98 0 -191 18.333 -279 55s-163.667 86.167 -227 148.5s-113.5 137 -150.5 224s-55.5 178.833 -55.5 275.5zM359.997 679.999c0 -127.333 40.332 -234 120.999 -320s181 -129 301 -129
c116.667 0 215.834 42.833 297.501 128.5s122.5 190.5 122.5 314.5c0 132 -39.667 241.5 -119 328.5s-179 130.5 -299 130.5c-122 0 -223.167 -43 -303.5 -129s-120.5 -194 -120.5 -324zM419.996 1640c0 39.333 13.833 72.832 41.5 100.499s61.5 41.5 101.5 41.5
c38.667 0 71.5 -14 98.5 -42s40.5 -62 40.5 -102c0 -38 -13.833 -70.667 -41.5 -98s-60.834 -41 -99.501 -41c-39.333 0 -72.666 13.833 -99.999 41.5s-41 60.834 -41 99.501zM855.996 1640c0 39.333 13.832 72.832 41.499 100.499s61.5 41.5 101.5 41.5
c38.667 0 71.667 -14 99 -42s41 -62 41 -102c0 -38 -14 -70.667 -42 -98s-61.333 -41 -100 -41c-39.333 0 -72.666 13.833 -99.999 41.5s-41 60.834 -41 99.501z" />
    <glyph glyph-name="multiply" unicode="&#xd7;" 
d="M104 418l314 311l-309 307l94 97l309 -310l309 312l101 -99l-314 -311l312 -307l-97 -96l-309 311l-311 -314z" />
    <glyph glyph-name="Oslash" unicode="&#xd8;" horiz-adv-x="1560" 
d="M74 670c0 136.667 30.3291 260.168 90.9961 370.501s144.334 196.666 251.001 258.999s226 93.5 358 93.5c90.667 0 176.834 -15.833 258.501 -47.5s154.5 -76.834 218.5 -135.501l148 144l69 -76l-143 -139c57.333 -82 98.333 -158 123 -228s37 -146.333 37 -229
c0 -130.667 -31.667 -250.167 -95 -358.5s-150.166 -193.833 -260.499 -256.5s-232.166 -94 -365.499 -94c-175.333 0 -328.333 60.333 -459 181l-147 -140l-68 74l143 139c-58 72.667 -99 142.834 -123 210.501s-36 145.167 -36 232.5zM357.996 682.001
c0 -104.667 25.334 -192.667 76.001 -264l617 606c-80.667 72.667 -170.334 109 -269.001 109c-120 0 -220.667 -43.167 -302 -129.5s-122 -193.5 -122 -321.5zM499.997 338.001c80 -70 170 -105 270 -105c122 0 224.167 43.167 306.5 129.5s123.5 193.5 123.5 321.5
c0 98 -26.667 185.333 -80 262z" />
    <glyph glyph-name="Ugrave" unicode="&#xd9;" horiz-adv-x="1308" 
d="M121 575v790.997h280v-801c0 -63.333 4.83301 -114.166 14.5 -152.499s25.5 -70.166 47.5 -95.499c20.667 -25.333 48 -45.666 82 -60.999s70 -23 108 -23c40 0 78 8.66699 114 26s64.333 40.333 85 69c20 26 33.833 56.5 41.5 91.5s11.5 84.167 11.5 147.5v799h283v-791
c0 -196.667 -45 -344 -135 -442c-46 -50.667 -103.5 -90 -172.5 -118s-143.5 -42 -223.5 -42c-82.667 0 -160.167 15 -232.5 45s-132.5 71.667 -180.5 125c-44 48.667 -75.5 106.5 -94.5 173.5s-28.5 153.167 -28.5 258.5zM328 1759h268l192 -272h-178z" />
    <glyph glyph-name="Uacute" unicode="&#xda;" horiz-adv-x="1308" 
d="M121 575v790.997h280v-801c0 -63.333 4.83301 -114.166 14.5 -152.499s25.5 -70.166 47.5 -95.499c20.667 -25.333 48 -45.666 82 -60.999s70 -23 108 -23c40 0 78 8.66699 114 26s64.333 40.333 85 69c20 26 33.833 56.5 41.5 91.5s11.5 84.167 11.5 147.5v799h283v-791
c0 -196.667 -45 -344 -135 -442c-46 -50.667 -103.5 -90 -172.5 -118s-143.5 -42 -223.5 -42c-82.667 0 -160.167 15 -232.5 45s-132.5 71.667 -180.5 125c-44 48.667 -75.5 106.5 -94.5 173.5s-28.5 153.167 -28.5 258.5zM518 1487l193 272h270l-285 -272h-178z" />
    <glyph glyph-name="Ucircumflex" unicode="&#xdb;" horiz-adv-x="1308" 
d="M121 575v790.997h280v-801c0 -63.333 4.83301 -114.166 14.5 -152.499s25.5 -70.166 47.5 -95.499c20.667 -25.333 48 -45.666 82 -60.999s70 -23 108 -23c40 0 78 8.66699 114 26s64.333 40.333 85 69c20 26 33.833 56.5 41.5 91.5s11.5 84.167 11.5 147.5v799h283v-791
c0 -196.667 -45 -344 -135 -442c-46 -50.667 -103.5 -90 -172.5 -118s-143.5 -42 -223.5 -42c-82.667 0 -160.167 15 -232.5 45s-132.5 71.667 -180.5 125c-44 48.667 -75.5 106.5 -94.5 173.5s-28.5 153.167 -28.5 258.5zM311 1487l232 274h237l217 -274h-182l-158 139
l-163 -139h-183z" />
    <glyph glyph-name="Udieresis" unicode="&#xdc;" horiz-adv-x="1308" 
d="M121 575v790.997h280v-801c0 -63.333 4.83301 -114.166 14.5 -152.499s25.5 -70.166 47.5 -95.499c20.667 -25.333 48 -45.666 82 -60.999s70 -23 108 -23c40 0 78 8.66699 114 26s64.333 40.333 85 69c20 26 33.833 56.5 41.5 91.5s11.5 84.167 11.5 147.5v799h283v-791
c0 -196.667 -45 -344 -135 -442c-46 -50.667 -103.5 -90 -172.5 -118s-143.5 -42 -223.5 -42c-82.667 0 -160.167 15 -232.5 45s-132.5 71.667 -180.5 125c-44 48.667 -75.5 106.5 -94.5 173.5s-28.5 153.167 -28.5 258.5zM293 1640c0 39.333 13.835 72.832 41.502 100.499
s61.5 41.5 101.5 41.5c38.667 0 71.5 -14 98.5 -42s40.5 -62 40.5 -102c0 -38 -13.833 -70.667 -41.5 -98s-60.834 -41 -99.501 -41s-71.834 13.833 -99.501 41.5s-41.5 60.834 -41.5 99.501zM729.002 1640c0 39.333 13.834 72.832 41.501 100.499s61.5 41.5 101.5 41.5
c38.667 0 71.667 -14 99 -42s41 -62 41 -102c0 -38 -14 -70.667 -42 -98s-61.333 -41 -100 -41s-71.834 13.833 -99.501 41.5s-41.5 60.834 -41.5 99.501z" />
    <glyph glyph-name="Yacute" unicode="&#xdd;" horiz-adv-x="1140" 
d="M-23 1366h334l264 -473l261 473h327l-448 -764v-602h-281v602zM436 1487l193 272h268l-283 -272h-178z" />
    <glyph glyph-name="Thorn" unicode="&#xde;" horiz-adv-x="1136" 
d="M139 0v1366h281v-149h155c162 0 286.833 -38 374.5 -114s131.5 -183.667 131.5 -323c0 -141.333 -43.5 -253 -130.5 -335s-205.833 -123 -356.5 -123h-174v-322h-281zM420 553h121c81.333 0 144.333 18.667 189 56s67 90.333 67 159c0 66.667 -22.5 119.5 -67.5 158.5
s-105.833 58.5 -182.5 58.5h-127v-432z" />
    <glyph glyph-name="germandbls" unicode="&#xdf;" horiz-adv-x="1089" 
d="M53 729l-0.00292969 219.003h92v105c0 99.333 35.833 179.333 107.5 240s165.834 91 282.501 91c120 0 216.833 -29.667 290.5 -89s110.5 -137.333 110.5 -234c0 -64 -16.333 -120.667 -49 -170c-14 -20 -30 -36.667 -48 -50s-43 -27.333 -75 -42
c82 -25.333 145.5 -70.833 190.5 -136.5s67.5 -145.834 67.5 -240.501c0 -124.667 -32 -230 -96 -316c-61.333 -82.667 -153.666 -124 -276.999 -124c-60.667 0 -118 12 -172 36l45 215c29.333 -8 52 -12 68 -12c54.667 0 98 19 130 57s48 88.667 48 152
c0 80.667 -29.333 140.667 -88 180c-29.333 19.333 -75.666 31.666 -138.999 36.999v238c42.667 3.33301 72.667 12 90 26c34 25.333 51 61.666 51 108.999c0 38.667 -13 71.167 -39 97.5s-58.667 39.5 -98 39.5c-51.333 0 -90.333 -19.667 -117 -59
c-8.66699 -13.333 -14.5 -28 -17.5 -44s-4.5 -41.667 -4.5 -77v-977h-261v729h-92z" />
    <glyph glyph-name="agrave" unicode="&#xe0;" horiz-adv-x="1243" 
d="M70 463c0 149.333 45.001 273 135.001 371s204 147 342 147c64 0 120 -12 168 -36s95 -63.333 141 -118v121h260v-948h-260v131c-45.333 -56.667 -94.333 -98.167 -147 -124.5s-113.667 -39.5 -183 -39.5c-132.667 0 -241.834 46.5 -327.501 139.5
s-128.5 211.833 -128.5 356.5zM311.001 1376h262l170 -284h-159zM346.001 469c0 -82.667 24.168 -151.833 72.501 -207.5s108.166 -83.5 179.499 -83.5c72 0 133.667 29 185 87s77 128 77 210c0 84 -24.333 152.833 -73 206.5s-111 80.5 -187 80.5
c-74.667 0 -135.667 -27.333 -183 -82s-71 -125 -71 -211z" />
    <glyph glyph-name="aacute" unicode="&#xe1;" horiz-adv-x="1243" 
d="M70 463c0 149.333 45.001 273 135.001 371s204 147 342 147c64 0 120 -12 168 -36s95 -63.333 141 -118v121h260v-948h-260v131c-45.333 -56.667 -94.333 -98.167 -147 -124.5s-113.667 -39.5 -183 -39.5c-132.667 0 -241.834 46.5 -327.501 139.5
s-128.5 211.833 -128.5 356.5zM346.001 469c0 -82.667 24.168 -151.833 72.501 -207.5s108.166 -83.5 179.499 -83.5c72 0 133.667 29 185 87s77 128 77 210c0 84 -24.333 152.833 -73 206.5s-111 80.5 -187 80.5c-74.667 0 -135.667 -27.333 -183 -82s-71 -125 -71 -211z
M502.002 1092l170 284h262l-270 -284h-162z" />
    <glyph glyph-name="acircumflex" unicode="&#xe2;" horiz-adv-x="1243" 
d="M70 463c0 149.333 45.001 273 135.001 371s204 147 342 147c64 0 120 -12 168 -36s95 -63.333 141 -118v121h260v-948h-260v131c-45.333 -56.667 -94.333 -98.167 -147 -124.5s-113.667 -39.5 -183 -39.5c-132.667 0 -241.834 46.5 -327.501 139.5
s-128.5 211.833 -128.5 356.5zM299.001 1092l209 284h242l196 -284h-182l-139 151l-144 -151h-182zM346.001 469c0 -82.667 24.168 -151.833 72.501 -207.5s108.166 -83.5 179.499 -83.5c72 0 133.667 29 185 87s77 128 77 210c0 84 -24.333 152.833 -73 206.5
s-111 80.5 -187 80.5c-74.667 0 -135.667 -27.333 -183 -82s-71 -125 -71 -211z" />
    <glyph glyph-name="atilde" unicode="&#xe3;" horiz-adv-x="1243" 
d="M70 463c0 149.333 45.001 273 135.001 371s204 147 342 147c64 0 120 -12 168 -36s95 -63.333 141 -118v121h260v-948h-260v131c-45.333 -56.667 -94.333 -98.167 -147 -124.5s-113.667 -39.5 -183 -39.5c-132.667 0 -241.834 46.5 -327.501 139.5
s-128.5 211.833 -128.5 356.5zM301.001 1122c34.667 152 105.667 227.999 213 227.999c40 0 102 -20 186 -60c18.667 -9.33301 34.667 -14 48 -14s25.166 6.33301 35.499 19s17.5 30.334 21.5 53.001l168 -13c-37.333 -152.667 -108.333 -229 -213 -229
c-37.333 0 -98 19.667 -182 59c-22 11.333 -38 17 -48 17c-27.333 0 -47.666 -24.667 -60.999 -74zM346.001 468.999c0 -82.667 24.168 -151.833 72.501 -207.5s108.166 -83.5 179.499 -83.5c72 0 133.667 29 185 87s77 128 77 210c0 84 -24.333 152.833 -73 206.5
s-111 80.5 -187 80.5c-74.667 0 -135.667 -27.333 -183 -82s-71 -125 -71 -211z" />
    <glyph glyph-name="adieresis" unicode="&#xe4;" horiz-adv-x="1243" 
d="M70 463c0 149.333 45.001 273 135.001 371s204 147 342 147c64 0 120 -12 168 -36s95 -63.333 141 -118v121h260v-948h-260v131c-45.333 -56.667 -94.333 -98.167 -147 -124.5s-113.667 -39.5 -183 -39.5c-132.667 0 -241.834 46.5 -327.501 139.5
s-128.5 211.833 -128.5 356.5zM299.001 1241c0 39.333 13.167 72 39.5 98s58.833 39 97.5 39c39.333 0 72 -13.167 98 -39.5s39 -59.5 39 -99.5c0 -38 -13.333 -70 -40 -96s-59 -39 -97 -39c-38.667 0 -71.167 13 -97.5 39s-39.5 58.667 -39.5 98zM346.001 469
c0 -82.667 24.168 -151.833 72.501 -207.5s108.166 -83.5 179.499 -83.5c72 0 133.667 29 185 87s77 128 77 210c0 84.667 -24 153.667 -72 207s-110.667 80 -188 80c-74.667 0 -135.667 -27.333 -183 -82s-71 -125 -71 -211zM735.002 1241c0 39.333 13.168 72 39.501 98
s58.833 39 97.5 39c39.333 0 72.166 -13.167 98.499 -39.5s39.5 -59.5 39.5 -99.5c0 -38 -13.5 -70 -40.5 -96s-59.5 -39 -97.5 -39c-38.667 0 -71.167 13 -97.5 39s-39.5 58.667 -39.5 98z" />
    <glyph glyph-name="aring" unicode="&#xe5;" horiz-adv-x="1243" 
d="M70 463c0 149.333 45.001 273 135.001 371s204 147 342 147c64 0 120 -12 168 -36s95 -63.333 141 -118v121h260v-948h-260v131c-45.333 -56.667 -94.333 -98.167 -147 -124.5s-113.667 -39.5 -183 -39.5c-132.667 0 -241.834 46.5 -327.501 139.5
s-128.5 211.833 -128.5 356.5zM346.001 469c0 -82.667 24.168 -151.833 72.501 -207.5s108.166 -83.5 179.499 -83.5c72 0 133.667 29 185 87s77 128 77 210c0 84.667 -24 153.667 -72 207s-110.667 80 -188 80c-74.667 0 -135.667 -27.333 -183 -82s-71 -125 -71 -211z
M420.002 1241c0 52 18.333 96 55 132s81.667 54 135 54s98.166 -18.167 134.499 -54.5s54.5 -81.5 54.5 -135.5c0 -50 -18.667 -92.833 -56 -128.5s-81.666 -53.5 -132.999 -53.5c-53.333 0 -98.333 18 -135 54s-55 80 -55 132zM516.002 1241
c0 -25.333 9 -47.001 27 -65.001s40.333 -27 67 -27c24.667 0 46.167 8.83301 64.5 26.5s27.5 38.834 27.5 63.501c0 26.667 -9 49 -27 67s-39.667 27 -65 27c-26.667 0 -49 -9 -67 -27s-27 -39.667 -27 -65z" />
    <glyph glyph-name="ae" unicode="&#xe6;" horiz-adv-x="1935" 
d="M68 465c0 149.333 44.3359 272.668 133.003 370.001s200.667 146 336 146c138.667 0 252 -47 340 -141v108h249v-108c40 51.333 81.667 87.666 125 108.999s96.666 32 159.999 32c132 0 242.833 -49.167 332.5 -147.5s134.5 -219.166 134.5 -362.499
c0 -22.667 -0.666992 -43 -2 -61h-750c13.333 -65.333 43.166 -116.833 89.499 -154.5s103.166 -56.5 170.499 -56.5c46.667 0 87.5 9.83301 122.5 29.5s68.167 51.5 99.5 95.5l235 -72c-49.333 -93.333 -110.333 -164.166 -183 -212.499s-155 -72.5 -247 -72.5
c-64 0 -118.333 11.167 -163 33.5s-86 59.166 -124 110.499v-111h-249v117c-42 -52 -89.5 -90 -142.5 -114s-115.5 -36 -187.5 -36c-143.333 0 -259 45.667 -347 137s-132 211.666 -132 360.999zM344.003 473.002c0 -82 25.999 -151.668 77.999 -209.001s116 -86 192 -86
c72.667 0 133.834 27.333 183.501 82s74.5 122.334 74.5 203.001c0 88 -24.333 159.833 -73 215.5s-111.667 83.5 -189 83.5c-76.667 0 -140.167 -27.333 -190.5 -82s-75.5 -123.667 -75.5 -207zM1126 559.001h483.998c-13.333 66.667 -40.166 117.167 -80.499 151.5
s-92.166 51.5 -155.499 51.5c-78 0 -140.667 -26.667 -188 -80c-24.667 -28 -44.667 -69 -60 -123z" />
    <glyph glyph-name="ccedilla" unicode="&#xe7;" horiz-adv-x="958" 
d="M68 469c0 149.333 47 272 141 368s214.667 144 362 144c136 0 262.333 -52.667 379 -158l-174 -157c-58 56 -123.333 84 -196 84c-71.333 0 -130.833 -26 -178.5 -78s-71.5 -117 -71.5 -195c0 -80 24.667 -146.333 74 -199s111.333 -79 186 -79
c34.667 0 65.834 6 93.501 18s58.5 32.667 92.5 62l158 -170c-105.333 -94.667 -227 -142 -365 -142c-144.667 0 -264.334 47.5 -359.001 142.5s-142 214.833 -142 359.5zM322 -332c43.333 21.333 80.3311 49 110.998 83s58.334 77.333 83.001 130l180 -76
c-33.333 -51.333 -71.166 -95 -113.499 -131s-94.5 -68.667 -156.5 -98z" />
    <glyph glyph-name="egrave" unicode="&#xe8;" horiz-adv-x="1138" 
d="M68 475c0 148.667 46.667 270.166 140 364.499s213.666 141.5 360.999 141.5c150.667 0 273.667 -48.167 369 -144.5s143 -220.833 143 -373.5c0 -22 -0.666992 -39 -2 -51h-741c11.333 -65.333 39.333 -117.166 84 -155.499s99.334 -57.5 164.001 -57.5
c48 0 91.333 11 130 33s68.334 52 89.001 90l239 -66c-47.333 -92 -110.833 -163.167 -190.5 -213.5s-169.5 -75.5 -269.5 -75.5c-150.667 0 -274.334 47.833 -371.001 143.5s-145 217.167 -145 364.5zM258 1376h262l170 -284h-160zM338 560.999h475
c-11.333 62.667 -38.5 111.834 -81.5 147.501s-96.5 53.5 -160.5 53.5c-62.667 0 -114 -17.333 -154 -52s-66.333 -84.334 -79 -149.001z" />
    <glyph glyph-name="eacute" unicode="&#xe9;" horiz-adv-x="1138" 
d="M68 475c0 148.667 46.667 270.166 140 364.499s213.666 141.5 360.999 141.5c150.667 0 273.667 -48.167 369 -144.5s143 -220.833 143 -373.5c0 -22 -0.666992 -39 -2 -51h-741c11.333 -65.333 39.333 -117.166 84 -155.499s99.334 -57.5 164.001 -57.5
c48 0 91.333 11 130 33s68.334 52 89.001 90l239 -66c-47.333 -92 -110.833 -163.167 -190.5 -213.5s-169.5 -75.5 -269.5 -75.5c-150.667 0 -274.334 47.833 -371.001 143.5s-145 217.167 -145 364.5zM338 560.999h475c-11.333 62.667 -38.5 111.834 -81.5 147.501
s-96.5 53.5 -160.5 53.5c-62.667 0 -114 -17.333 -154 -52s-66.333 -84.334 -79 -149.001zM451 1092l170 284h260l-271 -284h-159z" />
    <glyph glyph-name="ecircumflex" unicode="&#xea;" horiz-adv-x="1138" 
d="M68 475c0 148.667 46.667 270.166 140 364.499s213.666 141.5 360.999 141.5c150.667 0 273.667 -48.167 369 -144.5s143 -220.833 143 -373.5c0 -22 -0.666992 -39 -2 -51h-741c11.333 -65.333 39.333 -117.166 84 -155.499s99.334 -57.5 164.001 -57.5
c48 0 91.333 11 130 33s68.334 52 89.001 90l239 -66c-47.333 -92 -110.833 -163.167 -190.5 -213.5s-169.5 -75.5 -269.5 -75.5c-150.667 0 -274.334 47.833 -371.001 143.5s-145 217.167 -145 364.5zM246 1092l209 284h241l197 -284h-182l-140 151l-143 -151h-182z
M338 560.999h475c-11.333 62.667 -38.5 111.834 -81.5 147.501s-96.5 53.5 -160.5 53.5c-62.667 0 -114 -17.333 -154 -52s-66.333 -84.334 -79 -149.001z" />
    <glyph glyph-name="edieresis" unicode="&#xeb;" horiz-adv-x="1138" 
d="M68 475c0 148.667 46.667 270.166 140 364.499s213.666 141.5 360.999 141.5c150.667 0 273.667 -48.167 369 -144.5s143 -220.833 143 -373.5c0 -22 -0.666992 -39 -2 -51h-741c11.333 -65.333 39.333 -117.166 84 -155.499s99.334 -57.5 164.001 -57.5
c48 0 91.333 11 130 33s68.334 52 89.001 90l239 -66c-47.333 -92 -110.833 -163.167 -190.5 -213.5s-169.5 -75.5 -269.5 -75.5c-150.667 0 -274.334 47.833 -371.001 143.5s-145 217.167 -145 364.5zM213 1241c0 39.333 13.167 72 39.5 98s59.5 39 99.5 39
c38 0 70 -13.167 96 -39.5s39 -59.5 39 -99.5c0 -38 -13.333 -70 -40 -96s-59 -39 -97 -39c-38.667 0 -71.167 13 -97.5 39s-39.5 58.667 -39.5 98zM338 560.999h475c-11.333 62.667 -38.5 111.834 -81.5 147.501s-96.5 53.5 -160.5 53.5c-62.667 0 -114 -17.333 -154 -52
s-66.333 -84.334 -79 -149.001zM649 1241c0 39.333 13.167 72 39.5 98s59.5 39 99.5 39c38 0 70.167 -13.167 96.5 -39.5s39.5 -59.5 39.5 -99.5c0 -38 -13.5 -70 -40.5 -96s-59.5 -39 -97.5 -39c-38.667 0 -71.167 13 -97.5 39s-39.5 58.667 -39.5 98z" />
    <glyph glyph-name="igrave" unicode="&#xec;" horiz-adv-x="518" 
d="M-51 1376h262l170 -284h-160zM129 0v948h260v-948h-260z" />
    <glyph glyph-name="iacute" unicode="&#xed;" horiz-adv-x="518" 
d="M129 0v948h260v-948h-260zM139 1092l170 284h262l-272 -284h-160z" />
    <glyph glyph-name="icircumflex" unicode="&#xee;" horiz-adv-x="518" 
d="M-63 1092l208 284h242l197 -284h-183l-139 151l-143 -151h-182zM129 0v948h260v-948h-260z" />
    <glyph glyph-name="idieresis" unicode="&#xef;" horiz-adv-x="518" 
d="M-59 1241c0 39.333 13.167 72 39.5 98s59.5 39 99.5 39c38 0 70 -13.167 96 -39.5s39 -59.5 39 -99.5c0 -38 -13.333 -70 -40 -96s-59 -39 -97 -39c-38.667 0 -71.167 13 -97.5 39s-39.5 58.667 -39.5 98zM129 0v948h260v-948h-260zM299 1241c0 39.333 13.167 72 39.5 98
s59.5 39 99.5 39c38 0 70 -13.167 96 -39.5s39 -59.5 39 -99.5c0 -38 -13.333 -70 -40 -96s-59 -39 -97 -39c-38.667 0 -71.167 13 -97.5 39s-39.5 58.667 -39.5 98z" />
    <glyph glyph-name="eth" unicode="&#xf0;" horiz-adv-x="1165" 
d="M68 475c0 146.667 48.001 267.338 144.001 362.005s218.667 142 368 142c59.333 0 122 -11.667 188 -35c-17.333 47.333 -37.833 89.166 -61.5 125.499s-55.834 75.166 -96.501 116.499l-198 -109l-56 105l156 84c-18.667 16.667 -52.167 37.667 -100.5 63
s-85.166 41.666 -110.499 48.999l51 82c37.333 -6.66699 85.333 -22.667 144 -48s107.667 -51 147 -77l213 115l59 -102l-157 -82c107.333 -84.667 191.166 -193.334 251.499 -326.001s90.5 -274 90.5 -424c0 -164.667 -47.5 -297.334 -142.5 -398.001
s-220.167 -151 -375.5 -151c-150.667 0 -274 47.5 -370 142.5s-144 216.833 -144 365.5zM332.001 475.004c0 -82 23.001 -148.501 69.001 -199.501s106.333 -76.5 181 -76.5c77.333 0 138.666 25.167 183.999 75.5s68 117.833 68 202.5c0 81.333 -22.667 146.333 -68 195
s-106 73 -182 73s-137 -24.667 -183 -74s-69 -114.666 -69 -195.999z" />
    <glyph glyph-name="ntilde" unicode="&#xf1;" horiz-adv-x="1087" 
d="M129 0l0.000976562 948h260v-117c34 54.667 70.667 93.334 110 116.001s88.666 34 147.999 34c44.667 0 87.667 -7.83301 129 -23.5s76.333 -37.167 105 -64.5c30.667 -30.667 52.334 -67.834 65.001 -111.501s19 -104.167 19 -181.5v-600h-260v588
c0 47.333 -7.66699 84 -23 110c-12.667 19.333 -30.334 34.833 -53.001 46.5s-46.667 17.5 -72 17.5c-50 0 -90.5 -17.333 -121.5 -52s-46.5 -79.667 -46.5 -135v-575h-260zM221.001 1122c18.667 77.333 45.498 134.667 80.498 172s79.833 56 134.5 56
c41.333 0 103 -20 185 -60c18.667 -9.33301 34.334 -14 47.001 -14c28.667 0 48.334 24 59.001 72l166 -13c-17.333 -75.333 -44 -132.333 -80 -171s-79.667 -58 -131 -58c-22 0 -45.667 4.16699 -71 12.5s-63 23.833 -113 46.5c-22 11.333 -37.667 17 -47 17
c-28 0 -48.667 -24.667 -62 -74z" />
    <glyph glyph-name="ograve" unicode="&#xf2;" horiz-adv-x="1163" 
d="M68 473c0 149.333 48.167 271.331 144.5 365.998s220.833 142 373.5 142c149.333 0 272.333 -48.667 369 -146s145 -220.666 145 -369.999c0 -139.333 -50 -257.166 -150 -353.499s-222.667 -144.5 -368 -144.5c-149.333 0 -272.333 47.5 -369 142.5
s-145 216.167 -145 363.5zM272 1376h263l170 -284h-162zM330 472.998c0 -82 23.334 -148.165 70.001 -198.498s108 -75.5 184 -75.5c74.667 0 135.667 25.167 183 75.5s71 115.166 71 194.499c0 85.333 -22.833 153.166 -68.5 203.499s-106.834 75.5 -183.501 75.5
s-138.5 -25.333 -185.5 -76s-70.5 -117 -70.5 -199z" />
    <glyph glyph-name="oacute" unicode="&#xf3;" horiz-adv-x="1163" 
d="M68 473c0 149.333 48.167 271.331 144.5 365.998s220.833 142 373.5 142c149.333 0 272.333 -48.667 369 -146s145 -220.666 145 -369.999c0 -139.333 -50 -257.166 -150 -353.499s-222.667 -144.5 -368 -144.5c-149.333 0 -272.333 47.5 -369 142.5
s-145 216.167 -145 363.5zM330 472.998c0 -82 23.334 -148.165 70.001 -198.498s108 -75.5 184 -75.5c74.667 0 135.667 25.167 183 75.5s71 115.166 71 194.499c0 85.333 -22.833 153.166 -68.5 203.499s-106.834 75.5 -183.501 75.5s-138.5 -25.333 -185.5 -76
s-70.5 -117 -70.5 -199zM463.001 1092l170 284h262l-272 -284h-160z" />
    <glyph glyph-name="ocircumflex" unicode="&#xf4;" horiz-adv-x="1163" 
d="M68 473c0 149.333 48.167 271.331 144.5 365.998s220.833 142 373.5 142c149.333 0 272.333 -48.667 369 -146s145 -220.666 145 -369.999c0 -139.333 -50 -257.166 -150 -353.499s-222.667 -144.5 -368 -144.5c-149.333 0 -272.333 47.5 -369 142.5
s-145 216.167 -145 363.5zM260 1092l209 284h240l198 -284h-182l-141 151l-142 -151h-182zM330 472.998c0 -82 23.334 -148.165 70.001 -198.498s108 -75.5 184 -75.5c74.667 0 135.667 25.167 183 75.5s71 115.166 71 194.499c0 85.333 -22.833 153.166 -68.5 203.499
s-106.834 75.5 -183.501 75.5s-138.5 -25.333 -185.5 -76s-70.5 -117 -70.5 -199z" />
    <glyph glyph-name="otilde" unicode="&#xf5;" horiz-adv-x="1163" 
d="M68 473c0 149.333 48.167 271.331 144.5 365.998s220.833 142 373.5 142c149.333 0 272.333 -48.667 369 -146s145 -220.666 145 -369.999c0 -139.333 -50 -257.166 -150 -353.499s-222.667 -144.5 -368 -144.5c-149.333 0 -272.333 47.5 -369 142.5
s-145 216.167 -145 363.5zM260 1122c18.667 77.333 45.498 134.667 80.498 172s79.833 56 134.5 56c40.667 0 102 -20 184 -60c18.667 -9.33301 34.667 -14 48 -14c28.667 0 48.334 24 59.001 72l166 -13c-17.333 -75.333 -44 -132.333 -80 -171s-79.667 -58 -131 -58
c-22 0 -45.667 4.16699 -71 12.5s-63 23.833 -113 46.5c-22 11.333 -38 17 -48 17c-27.333 0 -47.666 -24.667 -60.999 -74zM329.998 472.999c0 -82 23.334 -148.165 70.001 -198.498s108 -75.5 184 -75.5c74.667 0 135.667 25.167 183 75.5s71 115.166 71 194.499
c0 85.333 -22.833 153.166 -68.5 203.499s-106.834 75.5 -183.501 75.5s-138.5 -25.333 -185.5 -76s-70.5 -117 -70.5 -199z" />
    <glyph glyph-name="odieresis" unicode="&#xf6;" horiz-adv-x="1163" 
d="M68 473c0 149.333 48.167 271.331 144.5 365.998s220.833 142 373.5 142c149.333 0 272.333 -48.667 369 -146s145 -220.666 145 -369.999c0 -139.333 -50 -257.166 -150 -353.499s-222.667 -144.5 -368 -144.5c-149.333 0 -272.333 47.5 -369 142.5
s-145 216.167 -145 363.5zM225 1241c0 39.333 13.168 72 39.501 98s58.833 39 97.5 39c39.333 0 72.166 -13.167 98.499 -39.5s39.5 -59.5 39.5 -99.5c0 -38 -13.5 -70 -40.5 -96s-59.5 -39 -97.5 -39c-38.667 0 -71.167 13 -97.5 39s-39.5 58.667 -39.5 98z
M330.001 472.998c0 -82 23.334 -148.165 70.001 -198.498s108 -75.5 184 -75.5c74.667 0 135.667 25.167 183 75.5s71 115.166 71 194.499c0 85.333 -22.833 153.166 -68.5 203.499s-106.834 75.5 -183.501 75.5s-138.5 -25.333 -185.5 -76s-70.5 -117 -70.5 -199z
M664.002 1241c0 39.333 13 72 39 98s58.667 39 98 39s72 -13.167 98 -39.5s39 -59.5 39 -99.5c0 -38 -13.333 -70 -40 -96s-59 -39 -97 -39c-39.333 0 -72 13 -98 39s-39 58.667 -39 98z" />
    <glyph glyph-name="divide" unicode="&#xf7;" 
d="M25 659v136h972v-136h-972zM403 367c0 30 10.667 55.5 32 76.5s47 31.5 77 31.5c28.667 0 53.5 -10.5 74.5 -31.5s31.5 -45.833 31.5 -74.5c0 -29.333 -10.5 -54.833 -31.5 -76.5s-45.833 -32.5 -74.5 -32.5c-29.333 0 -54.833 10.667 -76.5 32s-32.5 46.333 -32.5 75z
M403 1087c0 29.333 10.833 54.5 32.5 75.5s47.167 31.5 76.5 31.5c28.667 0 53.5 -10.667 74.5 -32s31.5 -46.333 31.5 -75c0 -29.333 -10.5 -54.666 -31.5 -75.999s-45.833 -32 -74.5 -32c-29.333 0 -54.833 10.667 -76.5 32s-32.5 46.666 -32.5 75.999z" />
    <glyph glyph-name="oslash" unicode="&#xf8;" horiz-adv-x="1165" 
d="M68 473c0 147.333 47.668 268.833 143.001 364.5s216.666 143.5 363.999 143.5c127.333 0 242.333 -37.667 345 -113l112 109l62 -68l-109 -106c40 -54.667 69.167 -108.5 87.5 -161.5s27.5 -110.5 27.5 -172.5c0 -93.333 -22.5 -178.5 -67.5 -255.5
s-107 -137.333 -186 -181s-166.5 -65.5 -262.5 -65.5c-128.667 0 -242 38.333 -340 115l-109 -105l-65 68l106 105c-38 46.667 -65.5 95.667 -82.5 147s-25.5 110 -25.5 176zM322.001 469c0 -51.333 12 -99.667 36 -145l383 374c-48.667 33.333 -101 50 -157 50
c-78.667 0 -142 -25.5 -190 -76.5s-72 -118.5 -72 -202.5zM422.001 251.999c48.667 -35.333 103.333 -53.001 164 -53.001c76 0 138 25.5 186 76.5s72 116.833 72 197.5c0 60.667 -13.667 113.334 -41 158.001z" />
    <glyph glyph-name="ugrave" unicode="&#xf9;" horiz-adv-x="1052" 
d="M111 348v600.001h260v-583c0 -53.333 14.5 -96.5 43.5 -129.5s66.833 -49.5 113.5 -49.5c48 0 85.667 14.5 113 43.5s41 68.5 41 118.5v600h260v-600c0 -70 -8 -126.333 -24 -169s-43.333 -80.334 -82 -113.001c-77.333 -66 -180 -99 -308 -99
c-135.333 0 -241 35 -317 105c-66.667 60 -100 152 -100 276zM215 1376h262l170 -284h-162z" />
    <glyph glyph-name="uacute" unicode="&#xfa;" horiz-adv-x="1052" 
d="M111 348v600.001h260v-583c0 -53.333 14.5 -96.5 43.5 -129.5s66.833 -49.5 113.5 -49.5c48 0 85.667 14.5 113 43.5s41 68.5 41 118.5v600h260v-600c0 -70 -8 -126.333 -24 -169s-43.333 -80.334 -82 -113.001c-77.333 -66 -180 -99 -308 -99
c-135.333 0 -241 35 -317 105c-66.667 60 -100 152 -100 276zM406 1092l169 284h263l-271 -284h-161z" />
    <glyph glyph-name="ucircumflex" unicode="&#xfb;" horiz-adv-x="1052" 
d="M111 348v600.001h260v-583c0 -53.333 14.5 -96.5 43.5 -129.5s66.833 -49.5 113.5 -49.5c48 0 85.667 14.5 113 43.5s41 68.5 41 118.5v600h260v-600c0 -70 -8 -126.333 -24 -169s-43.333 -80.334 -82 -113.001c-77.333 -66 -180 -99 -308 -99
c-135.333 0 -241 35 -317 105c-66.667 60 -100 152 -100 276zM203 1092l209 284h241l197 -284h-182l-140 151l-143 -151h-182z" />
    <glyph glyph-name="udieresis" unicode="&#xfc;" horiz-adv-x="1052" 
d="M111 348v600h260v-583c0 -53.333 14.5 -96.5 43.5 -129.5s66.833 -49.5 113.5 -49.5c48 0 85.667 14.5 113 43.5s41 68.5 41 118.5v600h260v-600c0 -69.333 -8.16699 -125.833 -24.5 -169.5s-43.5 -81.167 -81.5 -112.5c-79.333 -66 -182 -99 -308 -99
c-135.333 0 -241 35 -317 105c-66.667 60 -100 152 -100 276zM170 1241c0 39.333 13 72 39 98s58.667 39 98 39s72 -13.167 98 -39.5s39 -59.5 39 -99.5c0 -38 -13.333 -70 -40 -96s-59 -39 -97 -39c-39.333 0 -72 13 -98 39s-39 58.667 -39 98zM606 1241
c0 39.333 13.167 72 39.5 98s59.5 39 99.5 39c38 0 70.167 -13.167 96.5 -39.5s39.5 -59.5 39.5 -99.5c0 -38 -13.5 -70 -40.5 -96s-59.5 -39 -97.5 -39c-39.333 0 -72 13 -98 39s-39 58.667 -39 98z" />
    <glyph glyph-name="yacute" unicode="&#xfd;" horiz-adv-x="960" 
d="M-4 948h276l193 -563l221 563h277l-535 -1380h-278l178 455zM358 1092l170 284h263l-271 -284h-162z" />
    <glyph glyph-name="thorn" unicode="&#xfe;" horiz-adv-x="1245" 
d="M127 -424l0.000976562 1790h260v-535c39.333 52 83.5 90 132.5 114s108.5 36 178.5 36c95.333 0 183.666 -26 264.999 -78c143.333 -98 215 -242 215 -432c0 -151.333 -43.167 -273.166 -129.5 -365.499s-200.833 -138.5 -343.5 -138.5c-134 0 -240 45 -318 135v-526
h-260zM387.001 462.999c0 -86 22.999 -155.334 68.999 -208.001s107 -79 183 -79s138.333 27.167 187 81.5s73 123.5 73 207.5c0 86.667 -23.667 157.834 -71 213.501s-107.666 83.5 -180.999 83.5c-76.667 0 -139.167 -27.833 -187.5 -83.5s-72.5 -127.5 -72.5 -215.5z" />
    <glyph glyph-name="ydieresis" unicode="&#xff;" horiz-adv-x="960" 
d="M-4 948h276l193 -563l221 563h277l-535 -1380h-278l178 455zM123 1241c0 39.333 13.167 72 39.5 98s59.5 39 99.5 39c38 0 70 -13.167 96 -39.5s39 -59.5 39 -99.5c0 -38 -13.333 -70 -40 -96s-59 -39 -97 -39c-38.667 0 -71.167 13 -97.5 39s-39.5 58.667 -39.5 98z
M559 1241c0 39.333 13.167 72 39.5 98s59.5 39 99.5 39c38 0 70.167 -13.167 96.5 -39.5s39.5 -59.5 39.5 -99.5c0 -38 -13.5 -70 -40.5 -96s-59.5 -39 -97.5 -39c-38.667 0 -71.167 13 -97.5 39s-39.5 58.667 -39.5 98z" />
    <glyph glyph-name="OE" unicode="&#x152;" horiz-adv-x="2052" 
d="M80 686c0 99.333 17.667 192.668 53 280.001s83.5 162.333 144.5 225s134.5 112 220.5 148s178 54 276 54c90.667 0 171.5 -14.5 242.5 -43.5s137.833 -74.833 200.5 -137.5v154h741v-229h-467v-336h467v-230h-467v-342h467v-229h-741v162
c-26.667 -32 -50.5 -56.333 -71.5 -73s-48.5 -33.334 -82.5 -50.001c-94 -44 -192.333 -66 -295 -66c-128.667 0 -245.5 31 -350.5 93s-187.5 147.5 -247.5 256.5s-90 230.167 -90 363.5zM365 680.002c0 -128 40.5 -234.5 121.5 -319.5s182.5 -127.5 304.5 -127.5
s224.833 43.5 308.5 130.5s125.5 193.833 125.5 320.5c0 130 -39.667 237.333 -119 322s-180.333 127 -303 127c-126 0 -230.5 -43 -313.5 -129s-124.5 -194 -124.5 -324z" />
    <glyph glyph-name="oe" unicode="&#x153;" horiz-adv-x="1857" 
d="M68 475c0 148.667 47.166 270.166 141.499 364.499s216.166 141.5 365.499 141.5c167.333 0 293 -56.667 377 -170c24 28.667 45 50.334 63 65.001s42 30 72 46c78.667 39.333 160 59 244 59c102 0 193 -25.333 273 -76s138.667 -119.667 176 -207
c18 -43.333 30.333 -85.333 37 -126s10.667 -95.334 12 -164.001h-735c3.33301 -30.667 9 -55.667 17 -75s20.667 -38.333 38 -57c51.333 -51.333 114.666 -77 189.999 -77c106 0 187.333 40 244 120l213 -71c-47.333 -90 -110.166 -159.333 -188.499 -208
s-167.166 -73 -266.499 -73c-96 0 -186.667 24 -272 72c-24 13.333 -44.167 27.5 -60.5 42.5s-35.166 36.167 -56.499 63.5c-21.333 -28 -40.333 -49.167 -57 -63.5s-42.667 -31.166 -78 -50.499c-79.333 -42.667 -161.333 -64 -246 -64
c-146.667 0 -267.167 47.5 -361.5 142.5s-141.5 216.833 -141.5 365.5zM329.999 478.999c0 -80 24.501 -146.668 73.501 -200.001s109.833 -80 182.5 -80c70 0 129.167 25.333 177.5 76s72.5 113.334 72.5 188.001c0 82 -23.833 150.333 -71.5 205s-107.834 82 -180.501 82
s-133.167 -25.667 -181.5 -77s-72.5 -116 -72.5 -194zM1083 556.998h491.999c-12.667 65.333 -40.167 115.833 -82.5 151.5s-96.833 53.5 -163.5 53.5c-64 0 -117.167 -17.667 -159.5 -53s-71.166 -86 -86.499 -152z" />
    <glyph glyph-name="Ydieresis" unicode="&#x178;" horiz-adv-x="1140" 
d="M-23 1366h334l264 -473l261 473h327l-448 -764v-602h-281v602zM209 1640c0 39.333 13.834 72.832 41.501 100.499s61.5 41.5 101.5 41.5c38.667 0 71.667 -14 99 -42s41 -62 41 -102c0 -38 -14 -70.667 -42 -98s-61.333 -41 -100 -41s-71.834 13.833 -99.501 41.5
s-41.5 60.834 -41.5 99.501zM645.001 1640c0 39.333 13.834 72.832 41.501 100.499s61.5 41.5 101.5 41.5c38.667 0 71.667 -14 99 -42s41 -62 41 -102c0 -38 -14 -70.667 -42 -98s-61.333 -41 -100 -41s-71.834 13.833 -99.501 41.5s-41.5 60.834 -41.5 99.501z" />
    <glyph glyph-name="circumflex" unicode="&#x2c6;" 
d="M188 1092l209 284h242l197 -284h-183l-139 151l-143 -151h-183z" />
    <glyph glyph-name="tilde" unicode="&#x2dc;" 
d="M190 1122c34.667 152 105.666 228 212.999 228c40.667 0 103 -20 187 -60c18.667 -9.33301 34.334 -14 47.001 -14c29.333 0 48.333 24 57 72l168 -13c-37.333 -152.667 -108.333 -229 -213 -229c-37.333 0 -98 19.667 -182 59c-22 11.333 -37.667 17 -47 17
c-28 0 -48.667 -24.667 -62 -74z" />
    <glyph glyph-name="uni2000" unicode="&#x2000;" horiz-adv-x="910" 
 />
    <glyph glyph-name="uni2001" unicode="&#x2001;" horiz-adv-x="1821" 
 />
    <glyph glyph-name="uni2002" unicode="&#x2002;" horiz-adv-x="910" 
 />
    <glyph glyph-name="uni2003" unicode="&#x2003;" horiz-adv-x="1821" 
 />
    <glyph glyph-name="uni2004" unicode="&#x2004;" horiz-adv-x="607" 
 />
    <glyph glyph-name="uni2005" unicode="&#x2005;" horiz-adv-x="455" 
 />
    <glyph glyph-name="uni2006" unicode="&#x2006;" horiz-adv-x="303" 
 />
    <glyph glyph-name="uni2007" unicode="&#x2007;" horiz-adv-x="303" 
 />
    <glyph glyph-name="uni2008" unicode="&#x2008;" horiz-adv-x="227" 
 />
    <glyph glyph-name="uni2009" unicode="&#x2009;" horiz-adv-x="364" 
 />
    <glyph glyph-name="uni200A" unicode="&#x200a;" horiz-adv-x="101" 
 />
    <glyph glyph-name="uni2010" unicode="&#x2010;" horiz-adv-x="454" 
d="M0 385v229h455v-229h-455z" />
    <glyph glyph-name="uni2011" unicode="&#x2011;" horiz-adv-x="454" 
d="M0 385v229h455v-229h-455z" />
    <glyph glyph-name="figuredash" unicode="&#x2012;" horiz-adv-x="454" 
d="M0 385v229h455v-229h-455z" />
    <glyph glyph-name="endash" unicode="&#x2013;" 
d="M96 379v219h834v-219h-834z" />
    <glyph glyph-name="emdash" unicode="&#x2014;" horiz-adv-x="1370" 
d="M0 399v199h1370v-199h-1370z" />
    <glyph glyph-name="quoteleft" unicode="&#x2018;" horiz-adv-x="483" 
d="M70 967l161 426l177 -45l-115 -441z" />
    <glyph glyph-name="quoteright" unicode="&#x2019;" horiz-adv-x="483" 
d="M78 954l115 439l223 -60l-162 -426z" />
    <glyph glyph-name="quotesinglbase" unicode="&#x201a;" horiz-adv-x="497" 
d="M78 -193l119 472l233 -64l-170 -455z" />
    <glyph glyph-name="quotedblleft" unicode="&#x201c;" horiz-adv-x="888" 
d="M70 922l174 471l182 -47l-123 -488zM459 922l174 471l180 -47l-121 -488z" />
    <glyph glyph-name="quotedblright" unicode="&#x201d;" horiz-adv-x="888" 
d="M76 905l123 488l233 -64l-174 -471zM463 905l123 488l233 -64l-174 -471z" />
    <glyph glyph-name="quotedblbase" unicode="&#x201e;" horiz-adv-x="888" 
d="M76 -209l123 488l233 -64l-174 -471zM463 -209l123 488l233 -64l-174 -471z" />
    <glyph glyph-name="bullet" unicode="&#x2022;" horiz-adv-x="1366" 
d="M401 694c0 80 27.833 147.5 83.5 202.5s124.167 82.5 205.5 82.5c76 0 141.5 -27.833 196.5 -83.5s82.5 -122.167 82.5 -199.5c0 -78.667 -27.667 -145.667 -83 -201s-122 -83 -200 -83s-145 27.5 -201 82.5s-84 121.5 -84 199.5z" />
    <glyph glyph-name="ellipsis" unicode="&#x2026;" horiz-adv-x="1601" 
d="M117 125c0 44 14.333 80.168 43 108.501s65.334 42.5 110.001 42.5c43.333 0 79.166 -14.5 107.499 -43.5s42.5 -65.5 42.5 -109.5c0 -42.667 -14.5 -78.334 -43.5 -107.001s-65.167 -43 -108.5 -43c-44 0 -80.167 14.333 -108.5 43s-42.5 65 -42.5 109zM651 125.001
c0 44 14.5 80.168 43.5 108.501s65.833 42.5 110.5 42.5c42.667 0 78.167 -14.5 106.5 -43.5s42.5 -65.5 42.5 -109.5c0 -42.667 -14.333 -78.334 -43 -107.001s-64.667 -43 -108 -43c-44 0 -80.333 14.333 -109 43s-43 65 -43 109zM1184 125.002
c0 44 14.333 80.168 43 108.501s65.334 42.5 110.001 42.5c43.333 0 79.166 -14.5 107.499 -43.5s42.5 -65.5 42.5 -109.5c0 -42.667 -14.5 -78.334 -43.5 -107.001s-65.167 -43 -108.5 -43c-44 0 -80.167 14.333 -108.5 43s-42.5 65 -42.5 109z" />
    <glyph glyph-name="uni202F" unicode="&#x202f;" horiz-adv-x="364" 
 />
    <glyph glyph-name="guilsinglleft" unicode="&#x2039;" horiz-adv-x="528" 
d="M76 487l194 347h170l-196 -347l196 -333h-170z" />
    <glyph glyph-name="guilsinglright" unicode="&#x203a;" horiz-adv-x="528" 
d="M88 154l197 346l-197 334h170l195 -334l-195 -346h-170z" />
    <glyph glyph-name="uni205F" unicode="&#x205f;" horiz-adv-x="455" 
 />
    <glyph glyph-name="Euro" unicode="&#x20ac;" 
d="M0 549l86.001 261.999h64c24.667 174.667 85.167 315.334 181.5 422.001s211.166 160 344.499 160c63.333 0 124.833 -12.667 184.5 -38s112.834 -61.333 159.501 -108l-115 -266c-30 48.667 -64 86.167 -102 112.5s-77.667 39.5 -119 39.5
c-60.667 0 -113 -28.5 -157 -85.5s-74.333 -135.833 -91 -236.5h377l-86 -262h-287c19.333 -98.667 53.166 -176.334 101.499 -233.001s104.166 -85 167.499 -85c47.333 0 92.333 13.833 135 41.5s79.334 66.5 110.001 116.5v-340c-83.333 -50.667 -169.333 -76 -258 -76
c-136 0 -254.833 53.833 -356.5 161.5s-164.167 245.834 -187.5 414.501h-152z" />
    <glyph glyph-name="trademark" unicode="&#x2122;" horiz-adv-x="1744" 
d="M16 1217v149h594v-149h-202v-670h-191v670h-201zM727 547v819h211l246 -479l248 479h210v-819h-190v475l-268 -510l-266 510v-475h-191z" />
    <glyph glyph-name="uniE000" unicode="&#xe000;" horiz-adv-x="952" 
d="M0 0v952h952v-952h-952z" />
  </font>
</defs>
</svg>
